<svg id="visual" viewBox="0 0 950 300" width="950" height="300" xmlns="http://www.w3.org/2000/svg" xmlns:xlink="http://www.w3.org/1999/xlink" version="1.1"><path d="M0 10L6.8 13.7C13.7 17.3 27.3 24.7 41.2 24C55 23.3 69 14.7 82.8 12.7C96.7 10.7 110.3 15.3 124 20.5C137.7 25.7 151.3 31.3 165.2 33C179 34.7 193 32.3 206.8 34.7C220.7 37 234.3 44 248 45.3C261.7 46.7 275.3 42.3 289 38.2C302.7 34 316.3 30 330.2 24.3C344 18.7 358 11.3 371.8 10C385.7 8.7 399.3 13.3 413 22C426.7 30.7 440.3 43.3 454.2 41.7C468 40 482 24 495.8 17.2C509.7 10.3 523.3 12.7 537 12.5C550.7 12.3 564.3 9.7 578.2 14.8C592 20 606 33 619.8 39.8C633.7 46.7 647.3 47.3 661 48.7C674.7 50 688.3 52 702 48.5C715.7 45 729.3 36 743.2 29.3C757 22.7 771 18.3 784.8 14.5C798.7 10.7 812.3 7.3 826 13.2C839.7 19 853.3 34 867.2 39C881 44 895 39 908.8 34.5C922.7 30 936.3 26 943.2 24L950 22L950 0L943.2 0C936.3 0 922.7 0 908.8 0C895 0 881 0 867.2 0C853.3 0 839.7 0 826 0C812.3 0 798.7 0 784.8 0C771 0 757 0 743.2 0C729.3 0 715.7 0 702 0C688.3 0 674.7 0 661 0C647.3 0 633.7 0 619.8 0C606 0 592 0 578.2 0C564.3 0 550.7 0 537 0C523.3 0 509.7 0 495.8 0C482 0 468 0 454.2 0C440.3 0 426.7 0 413 0C399.3 0 385.7 0 371.8 0C358 0 344 0 330.2 0C316.3 0 302.7 0 289 0C275.3 0 261.7 0 248 0C234.3 0 220.7 0 206.8 0C193 0 179 0 165.2 0C151.3 0 137.7 0 124 0C110.3 0 96.7 0 82.8 0C69 0 55 0 41.2 0C27.3 0 13.7 0 6.8 0L0 0Z" fill="#008f71"></path><path d="M0 36L6.8 37.7C13.7 39.3 27.3 42.7 41.2 44C55 45.3 69 44.7 82.8 37.8C96.7 31 110.3 18 124 19.2C137.7 20.3 151.3 35.7 165.2 42C179 48.3 193 45.7 206.8 41C220.7 36.3 234.3 29.7 248 25.2C261.7 20.7 275.3 18.3 289 19.2C302.7 20 316.3 24 330.2 27.5C344 31 358 34 371.8 32.7C385.7 31.3 399.3 25.7 413 26.2C426.7 26.7 440.3 33.3 454.2 32.2C468 31 482 22 495.8 17.2C509.7 12.3 523.3 11.7 537 10.7C550.7 9.7 564.3 8.3 578.2 7.3C592 6.3 606 5.7 619.8 5.5C633.7 5.3 647.3 5.7 661 6.7C674.7 7.7 688.3 9.3 702 10.2C715.7 11 729.3 11 743.2 12.2C757 13.3 771 15.7 784.8 14.8C798.7 14 812.3 10 826 11.3C839.7 12.7 853.3 19.3 867.2 26.5C881 33.7 895 41.3 908.8 42.2C922.7 43 936.3 37 943.2 34L950 31L950 0L943.2 0C936.3 0 922.7 0 908.8 0C895 0 881 0 867.2 0C853.3 0 839.7 0 826 0C812.3 0 798.7 0 784.8 0C771 0 757 0 743.2 0C729.3 0 715.7 0 702 0C688.3 0 674.7 0 661 0C647.3 0 633.7 0 619.8 0C606 0 592 0 578.2 0C564.3 0 550.7 0 537 0C523.3 0 509.7 0 495.8 0C482 0 468 0 454.2 0C440.3 0 426.7 0 413 0C399.3 0 385.7 0 371.8 0C358 0 344 0 330.2 0C316.3 0 302.7 0 289 0C275.3 0 261.7 0 248 0C234.3 0 220.7 0 206.8 0C193 0 179 0 165.2 0C151.3 0 137.7 0 124 0C110.3 0 96.7 0 82.8 0C69 0 55 0 41.2 0C27.3 0 13.7 0 6.8 0L0 0Z" fill="#00a07e"></path><path d="M0 2L6.8 3C13.7 4 27.3 6 41.2 10.3C55 14.7 69 21.3 82.8 26.8C96.7 32.3 110.3 36.7 124 36.7C137.7 36.7 151.3 32.3 165.2 31.7C179 31 193 34 206.8 29.8C220.7 25.7 234.3 14.3 248 10.2C261.7 6 275.3 9 289 12.2C302.7 15.3 316.3 18.7 330.2 17.5C344 16.3 358 10.7 371.8 8.3C385.7 6 399.3 7 413 13C426.7 19 440.3 30 454.2 29C468 28 482 15 495.8 10.5C509.7 6 523.3 10 537 16.5C550.7 23 564.3 32 578.2 33.3C592 34.7 606 28.3 619.8 24.7C633.7 21 647.3 20 661 18.7C674.7 17.3 688.3 15.7 702 17.5C715.7 19.3 729.3 24.7 743.2 28C757 31.3 771 32.7 784.8 32.2C798.7 31.7 812.3 29.3 826 24.5C839.7 19.7 853.3 12.3 867.2 13.3C881 14.3 895 23.7 908.8 24.8C922.7 26 936.3 19 943.2 15.5L950 12L950 0L943.2 0C936.3 0 922.7 0 908.8 0C895 0 881 0 867.2 0C853.3 0 839.7 0 826 0C812.3 0 798.7 0 784.8 0C771 0 757 0 743.2 0C729.3 0 715.7 0 702 0C688.3 0 674.7 0 661 0C647.3 0 633.7 0 619.8 0C606 0 592 0 578.2 0C564.3 0 550.7 0 537 0C523.3 0 509.7 0 495.8 0C482 0 468 0 454.2 0C440.3 0 426.7 0 413 0C399.3 0 385.7 0 371.8 0C358 0 344 0 330.2 0C316.3 0 302.7 0 289 0C275.3 0 261.7 0 248 0C234.3 0 220.7 0 206.8 0C193 0 179 0 165.2 0C151.3 0 137.7 0 124 0C110.3 0 96.7 0 82.8 0C69 0 55 0 41.2 0C27.3 0 13.7 0 6.8 0L0 0Z" fill="#01b18c"></path><path d="M0 25L6.8 22C13.7 19 27.3 13 41.2 10.3C55 7.7 69 8.3 82.8 8C96.7 7.7 110.3 6.3 124 6C137.7 5.7 151.3 6.3 165.2 9.5C179 12.7 193 18.3 206.8 19.2C220.7 20 234.3 16 248 13.7C261.7 11.3 275.3 10.7 289 10.5C302.7 10.3 316.3 10.7 330.2 13.5C344 16.3 358 21.7 371.8 21.5C385.7 21.3 399.3 15.7 413 11.8C426.7 8 440.3 6 454.2 8.3C468 10.7 482 17.3 495.8 16.8C509.7 16.3 523.3 8.7 537 8C550.7 7.3 564.3 13.7 578.2 16.8C592 20 606 20 619.8 21.3C633.7 22.7 647.3 25.3 661 23C674.7 20.7 688.3 13.3 702 10.2C715.7 7 729.3 8 743.2 10.5C757 13 771 17 784.8 18.3C798.7 19.7 812.3 18.3 826 20.8C839.7 23.3 853.3 29.7 867.2 29.7C881 29.7 895 23.3 908.8 19C922.7 14.7 936.3 12.3 943.2 11.2L950 10L950 0L943.2 0C936.3 0 922.7 0 908.8 0C895 0 881 0 867.2 0C853.3 0 839.7 0 826 0C812.3 0 798.7 0 784.8 0C771 0 757 0 743.2 0C729.3 0 715.7 0 702 0C688.3 0 674.7 0 661 0C647.3 0 633.7 0 619.8 0C606 0 592 0 578.2 0C564.3 0 550.7 0 537 0C523.3 0 509.7 0 495.8 0C482 0 468 0 454.2 0C440.3 0 426.7 0 413 0C399.3 0 385.7 0 371.8 0C358 0 344 0 330.2 0C316.3 0 302.7 0 289 0C275.3 0 261.7 0 248 0C234.3 0 220.7 0 206.8 0C193 0 179 0 165.2 0C151.3 0 137.7 0 124 0C110.3 0 96.7 0 82.8 0C69 0 55 0 41.2 0C27.3 0 13.7 0 6.8 0L0 0Z" fill="#02c39a"></path><path d="M0 7L6.8 7C13.7 7 27.3 7 41.2 9.5C55 12 69 17 82.8 17.8C96.7 18.7 110.3 15.3 124 11.8C137.7 8.3 151.3 4.7 165.2 6.8C179 9 193 17 206.8 19C220.7 21 234.3 17 248 14.2C261.7 11.3 275.3 9.7 289 8.7C302.7 7.7 316.3 7.3 330.2 8.8C344 10.3 358 13.7 371.8 13.2C385.7 12.7 399.3 8.3 413 7.8C426.7 7.3 440.3 10.7 454.2 13.8C468 17 482 20 495.8 21C509.7 22 523.3 21 537 21.3C550.7 21.7 564.3 23.3 578.2 22.3C592 21.3 606 17.7 619.8 14.8C633.7 12 647.3 10 661 8.3C674.7 6.7 688.3 5.3 702 7.7C715.7 10 729.3 16 743.2 17C757 18 771 14 784.8 12.8C798.7 11.7 812.3 13.3 826 12.2C839.7 11 853.3 7 867.2 8C881 9 895 15 908.8 16C922.7 17 936.3 13 943.2 11L950 9L950 0L943.2 0C936.3 0 922.7 0 908.8 0C895 0 881 0 867.2 0C853.3 0 839.7 0 826 0C812.3 0 798.7 0 784.8 0C771 0 757 0 743.2 0C729.3 0 715.7 0 702 0C688.3 0 674.7 0 661 0C647.3 0 633.7 0 619.8 0C606 0 592 0 578.2 0C564.3 0 550.7 0 537 0C523.3 0 509.7 0 495.8 0C482 0 468 0 454.2 0C440.3 0 426.7 0 413 0C399.3 0 385.7 0 371.8 0C358 0 344 0 330.2 0C316.3 0 302.7 0 289 0C275.3 0 261.7 0 248 0C234.3 0 220.7 0 206.8 0C193 0 179 0 165.2 0C151.3 0 137.7 0 124 0C110.3 0 96.7 0 82.8 0C69 0 55 0 41.2 0C27.3 0 13.7 0 6.8 0L0 0Z" fill="#2ccaa4"></path><path d="M0 6L6.8 7C13.7 8 27.3 10 41.2 10.8C55 11.7 69 11.3 82.8 11.7C96.7 12 110.3 13 124 13.3C137.7 13.7 151.3 13.3 165.2 13C179 12.7 193 12.3 206.8 12.5C220.7 12.7 234.3 13.3 248 14.5C261.7 15.7 275.3 17.3 289 15.7C302.7 14 316.3 9 330.2 6.8C344 4.7 358 5.3 371.8 7.7C385.7 10 399.3 14 413 16.5C426.7 19 440.3 20 454.2 19.2C468 18.3 482 15.7 495.8 13C509.7 10.3 523.3 7.7 537 6.8C550.7 6 564.3 7 578.2 8.8C592 10.7 606 13.3 619.8 12.2C633.7 11 647.3 6 661 4.3C674.7 2.7 688.3 4.3 702 4.5C715.7 4.7 729.3 3.3 743.2 4C757 4.7 771 7.3 784.8 7.8C798.7 8.3 812.3 6.7 826 5.7C839.7 4.7 853.3 4.3 867.2 4.2C881 4 895 4 908.8 6.5C922.7 9 936.3 14 943.2 16.5L950 19L950 0L943.2 0C936.3 0 922.7 0 908.8 0C895 0 881 0 867.2 0C853.3 0 839.7 0 826 0C812.3 0 798.7 0 784.8 0C771 0 757 0 743.2 0C729.3 0 715.7 0 702 0C688.3 0 674.7 0 661 0C647.3 0 633.7 0 619.8 0C606 0 592 0 578.2 0C564.3 0 550.7 0 537 0C523.3 0 509.7 0 495.8 0C482 0 468 0 454.2 0C440.3 0 426.7 0 413 0C399.3 0 385.7 0 371.8 0C358 0 344 0 330.2 0C316.3 0 302.7 0 289 0C275.3 0 261.7 0 248 0C234.3 0 220.7 0 206.8 0C193 0 179 0 165.2 0C151.3 0 137.7 0 124 0C110.3 0 96.7 0 82.8 0C69 0 55 0 41.2 0C27.3 0 13.7 0 6.8 0L0 0Z" fill="#42d0ad"></path><path d="M0 0L6.8 0.8C13.7 1.7 27.3 3.3 41.2 3.7C55 4 69 3 82.8 2.2C96.7 1.3 110.3 0.7 124 0.5C137.7 0.3 151.3 0.7 165.2 0.7C179 0.7 193 0.3 206.8 2.2C220.7 4 234.3 8 248 8.7C261.7 9.3 275.3 6.7 289 5C302.7 3.3 316.3 2.7 330.2 2C344 1.3 358 0.7 371.8 1C385.7 1.3 399.3 2.7 413 4C426.7 5.3 440.3 6.7 454.2 7.3C468 8 482 8 495.8 6.7C509.7 5.3 523.3 2.7 537 2.3C550.7 2 564.3 4 578.2 4.8C592 5.7 606 5.3 619.8 4.7C633.7 4 647.3 3 661 3C674.7 3 688.3 4 702 4.5C715.7 5 729.3 5 743.2 5.3C757 5.7 771 6.3 784.8 7C798.7 7.7 812.3 8.3 826 7.8C839.7 7.3 853.3 5.7 867.2 5.8C881 6 895 8 908.8 7.8C922.7 7.7 936.3 5.3 943.2 4.2L950 3L950 0L943.2 0C936.3 0 922.7 0 908.8 0C895 0 881 0 867.2 0C853.3 0 839.7 0 826 0C812.3 0 798.7 0 784.8 0C771 0 757 0 743.2 0C729.3 0 715.7 0 702 0C688.3 0 674.7 0 661 0C647.3 0 633.7 0 619.8 0C606 0 592 0 578.2 0C564.3 0 550.7 0 537 0C523.3 0 509.7 0 495.8 0C482 0 468 0 454.2 0C440.3 0 426.7 0 413 0C399.3 0 385.7 0 371.8 0C358 0 344 0 330.2 0C316.3 0 302.7 0 289 0C275.3 0 261.7 0 248 0C234.3 0 220.7 0 206.8 0C193 0 179 0 165.2 0C151.3 0 137.7 0 124 0C110.3 0 96.7 0 82.8 0C69 0 55 0 41.2 0C27.3 0 13.7 0 6.8 0L0 0Z" fill="#54d7b7"></path></svg>