<svg id="visual" viewBox="0 0 960 300" width="960" height="300" xmlns="http://www.w3.org/2000/svg" xmlns:xlink="http://www.w3.org/1999/xlink" version="1.1"><path d="M0 60L7 63.5C14 67 28 74 41.8 78.3C55.7 82.7 69.3 84.3 83.2 75.8C97 67.3 111 48.7 125 40.8C139 33 153 36 167 33.8C181 31.7 195 24.3 208.8 29.7C222.7 35 236.3 53 250.2 62.5C264 72 278 73 292 74C306 75 320 76 334 69.5C348 63 362 49 375.8 46C389.7 43 403.3 51 417.2 55.5C431 60 445 61 459 61.3C473 61.7 487 61.3 501 65.2C515 69 529 77 542.8 68.2C556.7 59.3 570.3 33.7 584.2 27.5C598 21.3 612 34.7 626 46.5C640 58.3 654 68.7 668 68.7C682 68.7 696 58.3 709.8 59C723.7 59.7 737.3 71.3 751.2 71.3C765 71.3 779 59.7 793 53.8C807 48 821 48 835 48.3C849 48.7 863 49.3 876.8 47.2C890.7 45 904.3 40 918.2 40.3C932 40.7 946 46.3 953 49.2L960 52L960 0L953 0C946 0 932 0 918.2 0C904.3 0 890.7 0 876.8 0C863 0 849 0 835 0C821 0 807 0 793 0C779 0 765 0 751.2 0C737.3 0 723.7 0 709.8 0C696 0 682 0 668 0C654 0 640 0 626 0C612 0 598 0 584.2 0C570.3 0 556.7 0 542.8 0C529 0 515 0 501 0C487 0 473 0 459 0C445 0 431 0 417.2 0C403.3 0 389.7 0 375.8 0C362 0 348 0 334 0C320 0 306 0 292 0C278 0 264 0 250.2 0C236.3 0 222.7 0 208.8 0C195 0 181 0 167 0C153 0 139 0 125 0C111 0 97 0 83.2 0C69.3 0 55.7 0 41.8 0C28 0 14 0 7 0L0 0Z" fill="#004b67"></path><path d="M0 25L7 25.3C14 25.7 28 26.3 41.8 29.5C55.7 32.7 69.3 38.3 83.2 36C97 33.7 111 23.3 125 27.5C139 31.7 153 50.3 167 56.8C181 63.3 195 57.7 208.8 51.8C222.7 46 236.3 40 250.2 43.8C264 47.7 278 61.3 292 68.5C306 75.7 320 76.3 334 74.8C348 73.3 362 69.7 375.8 58.5C389.7 47.3 403.3 28.7 417.2 23C431 17.3 445 24.7 459 32.8C473 41 487 50 501 45.8C515 41.7 529 24.3 542.8 20.7C556.7 17 570.3 27 584.2 28.3C598 29.7 612 22.3 626 23.3C640 24.3 654 33.7 668 43.7C682 53.7 696 64.3 709.8 59.8C723.7 55.3 737.3 35.7 751.2 32.7C765 29.7 779 43.3 793 42.8C807 42.3 821 27.7 835 30.5C849 33.3 863 53.7 876.8 62.3C890.7 71 904.3 68 918.2 57.5C932 47 946 29 953 20L960 11L960 0L953 0C946 0 932 0 918.2 0C904.3 0 890.7 0 876.8 0C863 0 849 0 835 0C821 0 807 0 793 0C779 0 765 0 751.2 0C737.3 0 723.7 0 709.8 0C696 0 682 0 668 0C654 0 640 0 626 0C612 0 598 0 584.2 0C570.3 0 556.7 0 542.8 0C529 0 515 0 501 0C487 0 473 0 459 0C445 0 431 0 417.2 0C403.3 0 389.7 0 375.8 0C362 0 348 0 334 0C320 0 306 0 292 0C278 0 264 0 250.2 0C236.3 0 222.7 0 208.8 0C195 0 181 0 167 0C153 0 139 0 125 0C111 0 97 0 83.2 0C69.3 0 55.7 0 41.8 0C28 0 14 0 7 0L0 0Z" fill="#015473"></path><path d="M0 5L7 14.5C14 24 28 43 41.8 49.3C55.7 55.7 69.3 49.3 83.2 48.5C97 47.7 111 52.3 125 48.3C139 44.3 153 31.7 167 29.7C181 27.7 195 36.3 208.8 40.5C222.7 44.7 236.3 44.3 250.2 42.8C264 41.3 278 38.7 292 41C306 43.3 320 50.7 334 51C348 51.3 362 44.7 375.8 42.5C389.7 40.3 403.3 42.7 417.2 39.3C431 36 445 27 459 26.2C473 25.3 487 32.7 501 33C515 33.3 529 26.7 542.8 24.7C556.7 22.7 570.3 25.3 584.2 26.7C598 28 612 28 626 28.3C640 28.7 654 29.3 668 27.5C682 25.7 696 21.3 709.8 26.7C723.7 32 737.3 47 751.2 52.3C765 57.7 779 53.3 793 47.7C807 42 821 35 835 36.2C849 37.3 863 46.7 876.8 51C890.7 55.3 904.3 54.7 918.2 48C932 41.3 946 28.7 953 22.3L960 16L960 0L953 0C946 0 932 0 918.2 0C904.3 0 890.7 0 876.8 0C863 0 849 0 835 0C821 0 807 0 793 0C779 0 765 0 751.2 0C737.3 0 723.7 0 709.8 0C696 0 682 0 668 0C654 0 640 0 626 0C612 0 598 0 584.2 0C570.3 0 556.7 0 542.8 0C529 0 515 0 501 0C487 0 473 0 459 0C445 0 431 0 417.2 0C403.3 0 389.7 0 375.8 0C362 0 348 0 334 0C320 0 306 0 292 0C278 0 264 0 250.2 0C236.3 0 222.7 0 208.8 0C195 0 181 0 167 0C153 0 139 0 125 0C111 0 97 0 83.2 0C69.3 0 55.7 0 41.8 0C28 0 14 0 7 0L0 0Z" fill="#025d80"></path><path d="M0 35L7 32.5C14 30 28 25 41.8 26.3C55.7 27.7 69.3 35.3 83.2 40.5C97 45.7 111 48.3 125 44.5C139 40.7 153 30.3 167 23C181 15.7 195 11.3 208.8 12.8C222.7 14.3 236.3 21.7 250.2 28.7C264 35.7 278 42.3 292 40.2C306 38 320 27 334 24.8C348 22.7 362 29.3 375.8 34.7C389.7 40 403.3 44 417.2 39.2C431 34.3 445 20.7 459 16.8C473 13 487 19 501 21.3C515 23.7 529 22.3 542.8 21.7C556.7 21 570.3 21 584.2 25.5C598 30 612 39 626 43.5C640 48 654 48 668 48.7C682 49.3 696 50.7 709.8 44.5C723.7 38.3 737.3 24.7 751.2 24.7C765 24.7 779 38.3 793 40C807 41.7 821 31.3 835 28.8C849 26.3 863 31.7 876.8 31.2C890.7 30.7 904.3 24.3 918.2 26.8C932 29.3 946 40.7 953 46.3L960 52L960 0L953 0C946 0 932 0 918.2 0C904.3 0 890.7 0 876.8 0C863 0 849 0 835 0C821 0 807 0 793 0C779 0 765 0 751.2 0C737.3 0 723.7 0 709.8 0C696 0 682 0 668 0C654 0 640 0 626 0C612 0 598 0 584.2 0C570.3 0 556.7 0 542.8 0C529 0 515 0 501 0C487 0 473 0 459 0C445 0 431 0 417.2 0C403.3 0 389.7 0 375.8 0C362 0 348 0 334 0C320 0 306 0 292 0C278 0 264 0 250.2 0C236.3 0 222.7 0 208.8 0C195 0 181 0 167 0C153 0 139 0 125 0C111 0 97 0 83.2 0C69.3 0 55.7 0 41.8 0C28 0 14 0 7 0L0 0Z" fill="#05668d"></path><path d="M0 19L7 20.3C14 21.7 28 24.3 41.8 27.7C55.7 31 69.3 35 83.2 35.3C97 35.7 111 32.3 125 29C139 25.7 153 22.3 167 18.8C181 15.3 195 11.7 208.8 15.8C222.7 20 236.3 32 250.2 33.2C264 34.3 278 24.7 292 19.8C306 15 320 15 334 17.5C348 20 362 25 375.8 25.5C389.7 26 403.3 22 417.2 21.7C431 21.3 445 24.7 459 23C473 21.3 487 14.7 501 10.8C515 7 529 6 542.8 8C556.7 10 570.3 15 584.2 18.3C598 21.7 612 23.3 626 21.3C640 19.3 654 13.7 668 15.7C682 17.7 696 27.3 709.8 28.7C723.7 30 737.3 23 751.2 17.2C765 11.3 779 6.7 793 4.5C807 2.3 821 2.7 835 6C849 9.3 863 15.7 876.8 16.3C890.7 17 904.3 12 918.2 13.8C932 15.7 946 24.3 953 28.7L960 33L960 0L953 0C946 0 932 0 918.2 0C904.3 0 890.7 0 876.8 0C863 0 849 0 835 0C821 0 807 0 793 0C779 0 765 0 751.2 0C737.3 0 723.7 0 709.8 0C696 0 682 0 668 0C654 0 640 0 626 0C612 0 598 0 584.2 0C570.3 0 556.7 0 542.8 0C529 0 515 0 501 0C487 0 473 0 459 0C445 0 431 0 417.2 0C403.3 0 389.7 0 375.8 0C362 0 348 0 334 0C320 0 306 0 292 0C278 0 264 0 250.2 0C236.3 0 222.7 0 208.8 0C195 0 181 0 167 0C153 0 139 0 125 0C111 0 97 0 83.2 0C69.3 0 55.7 0 41.8 0C28 0 14 0 7 0L0 0Z" fill="#1b7299"></path><path d="M0 1L7 0.8C14 0.7 28 0.3 41.8 1.2C55.7 2 69.3 4 83.2 5.5C97 7 111 8 125 9C139 10 153 11 167 12.7C181 14.3 195 16.7 208.8 18C222.7 19.3 236.3 19.7 250.2 20.7C264 21.7 278 23.3 292 21.2C306 19 320 13 334 13.7C348 14.3 362 21.7 375.8 24.2C389.7 26.7 403.3 24.3 417.2 25C431 25.7 445 29.3 459 26C473 22.7 487 12.3 501 7C515 1.7 529 1.3 542.8 2C556.7 2.7 570.3 4.3 584.2 4.7C598 5 612 4 626 6.7C640 9.3 654 15.7 668 19.7C682 23.7 696 25.3 709.8 22.8C723.7 20.3 737.3 13.7 751.2 10.3C765 7 779 7 793 8.5C807 10 821 13 835 14.5C849 16 863 16 876.8 13.7C890.7 11.3 904.3 6.7 918.2 6.7C932 6.7 946 11.3 953 13.7L960 16L960 0L953 0C946 0 932 0 918.2 0C904.3 0 890.7 0 876.8 0C863 0 849 0 835 0C821 0 807 0 793 0C779 0 765 0 751.2 0C737.3 0 723.7 0 709.8 0C696 0 682 0 668 0C654 0 640 0 626 0C612 0 598 0 584.2 0C570.3 0 556.7 0 542.8 0C529 0 515 0 501 0C487 0 473 0 459 0C445 0 431 0 417.2 0C403.3 0 389.7 0 375.8 0C362 0 348 0 334 0C320 0 306 0 292 0C278 0 264 0 250.2 0C236.3 0 222.7 0 208.8 0C195 0 181 0 167 0C153 0 139 0 125 0C111 0 97 0 83.2 0C69.3 0 55.7 0 41.8 0C28 0 14 0 7 0L0 0Z" fill="#2a7ea4"></path><path d="M0 17L7 15C14 13 28 9 41.8 9.7C55.7 10.3 69.3 15.7 83.2 15C97 14.3 111 7.7 125 4.3C139 1 153 1 167 4C181 7 195 13 208.8 15.8C222.7 18.7 236.3 18.3 250.2 17.2C264 16 278 14 292 14.2C306 14.3 320 16.7 334 15.2C348 13.7 362 8.3 375.8 5.2C389.7 2 403.3 1 417.2 3C431 5 445 10 459 13.5C473 17 487 19 501 18C515 17 529 13 542.8 11.8C556.7 10.7 570.3 12.3 584.2 12.2C598 12 612 10 626 10.2C640 10.3 654 12.7 668 14C682 15.3 696 15.7 709.8 13.5C723.7 11.3 737.3 6.7 751.2 6C765 5.3 779 8.7 793 9.5C807 10.3 821 8.7 835 7.7C849 6.7 863 6.3 876.8 8C890.7 9.7 904.3 13.3 918.2 14.7C932 16 946 15 953 14.5L960 14L960 0L953 0C946 0 932 0 918.2 0C904.3 0 890.7 0 876.8 0C863 0 849 0 835 0C821 0 807 0 793 0C779 0 765 0 751.2 0C737.3 0 723.7 0 709.8 0C696 0 682 0 668 0C654 0 640 0 626 0C612 0 598 0 584.2 0C570.3 0 556.7 0 542.8 0C529 0 515 0 501 0C487 0 473 0 459 0C445 0 431 0 417.2 0C403.3 0 389.7 0 375.8 0C362 0 348 0 334 0C320 0 306 0 292 0C278 0 264 0 250.2 0C236.3 0 222.7 0 208.8 0C195 0 181 0 167 0C153 0 139 0 125 0C111 0 97 0 83.2 0C69.3 0 55.7 0 41.8 0C28 0 14 0 7 0L0 0Z" fill="#378ab0"></path></svg>