<svg id="visual" viewBox="0 0 500 300" width="500" height="300" xmlns="http://www.w3.org/2000/svg" xmlns:xlink="http://www.w3.org/1999/xlink" version="1.1"><path d="M0 199L7.5 174.3C15 149.7 30 100.3 45.2 76.7C60.3 53 75.7 55 90.8 78.7C106 102.3 121 147.7 136.2 170C151.3 192.3 166.7 191.7 181.8 207.8C197 224 212 257 227.2 237.7C242.3 218.3 257.7 146.7 272.8 138.2C288 129.7 303 184.3 318.2 188.5C333.3 192.7 348.7 146.3 363.8 122.5C379 98.7 394 97.3 409.2 95.3C424.3 93.3 439.7 90.7 454.8 110C470 129.3 485 170.7 492.5 191.3L500 212L500 0L492.5 0C485 0 470 0 454.8 0C439.7 0 424.3 0 409.2 0C394 0 379 0 363.8 0C348.7 0 333.3 0 318.2 0C303 0 288 0 272.8 0C257.7 0 242.3 0 227.2 0C212 0 197 0 181.8 0C166.7 0 151.3 0 136.2 0C121 0 106 0 90.8 0C75.7 0 60.3 0 45.2 0C30 0 15 0 7.5 0L0 0Z" fill="#004b67"></path><path d="M0 47L7.5 49.8C15 52.7 30 58.3 45.2 63.3C60.3 68.3 75.7 72.7 90.8 65.5C106 58.3 121 39.7 136.2 38.5C151.3 37.3 166.7 53.7 181.8 78.5C197 103.3 212 136.7 227.2 148.3C242.3 160 257.7 150 272.8 137.3C288 124.7 303 109.3 318.2 129.2C333.3 149 348.7 204 363.8 219.8C379 235.7 394 212.3 409.2 188.3C424.3 164.3 439.7 139.7 454.8 125.8C470 112 485 109 492.5 107.5L500 106L500 0L492.5 0C485 0 470 0 454.8 0C439.7 0 424.3 0 409.2 0C394 0 379 0 363.8 0C348.7 0 333.3 0 318.2 0C303 0 288 0 272.8 0C257.7 0 242.3 0 227.2 0C212 0 197 0 181.8 0C166.7 0 151.3 0 136.2 0C121 0 106 0 90.8 0C75.7 0 60.3 0 45.2 0C30 0 15 0 7.5 0L0 0Z" fill="#00506e"></path><path d="M0 42L7.5 69.3C15 96.7 30 151.3 45.2 169.7C60.3 188 75.7 170 90.8 175.7C106 181.3 121 210.7 136.2 209.7C151.3 208.7 166.7 177.3 181.8 176.7C197 176 212 206 227.2 203.3C242.3 200.7 257.7 165.3 272.8 166.2C288 167 303 204 318.2 212.3C333.3 220.7 348.7 200.3 363.8 194.8C379 189.3 394 198.7 409.2 192C424.3 185.3 439.7 162.7 454.8 159.5C470 156.3 485 172.7 492.5 180.8L500 189L500 0L492.5 0C485 0 470 0 454.8 0C439.7 0 424.3 0 409.2 0C394 0 379 0 363.8 0C348.7 0 333.3 0 318.2 0C303 0 288 0 272.8 0C257.7 0 242.3 0 227.2 0C212 0 197 0 181.8 0C166.7 0 151.3 0 136.2 0C121 0 106 0 90.8 0C75.7 0 60.3 0 45.2 0C30 0 15 0 7.5 0L0 0Z" fill="#015575"></path><path d="M0 117L7.5 131.8C15 146.7 30 176.3 45.2 168.2C60.3 160 75.7 114 90.8 82.7C106 51.3 121 34.7 136.2 39.8C151.3 45 166.7 72 181.8 71C197 70 212 41 227.2 36.5C242.3 32 257.7 52 272.8 67C288 82 303 92 318.2 83.7C333.3 75.3 348.7 48.7 363.8 69C379 89.3 394 156.7 409.2 169C424.3 181.3 439.7 138.7 454.8 128C470 117.3 485 138.7 492.5 149.3L500 160L500 0L492.5 0C485 0 470 0 454.8 0C439.7 0 424.3 0 409.2 0C394 0 379 0 363.8 0C348.7 0 333.3 0 318.2 0C303 0 288 0 272.8 0C257.7 0 242.3 0 227.2 0C212 0 197 0 181.8 0C166.7 0 151.3 0 136.2 0C121 0 106 0 90.8 0C75.7 0 60.3 0 45.2 0C30 0 15 0 7.5 0L0 0Z" fill="#025a7b"></path><path d="M0 91L7.5 98.2C15 105.3 30 119.7 45.2 138.3C60.3 157 75.7 180 90.8 164.5C106 149 121 95 136.2 76.2C151.3 57.3 166.7 73.7 181.8 95.5C197 117.3 212 144.7 227.2 156C242.3 167.3 257.7 162.7 272.8 138.8C288 115 303 72 318.2 46.5C333.3 21 348.7 13 363.8 29.2C379 45.3 394 85.7 409.2 115.5C424.3 145.3 439.7 164.7 454.8 169C470 173.3 485 162.7 492.5 157.3L500 152L500 0L492.5 0C485 0 470 0 454.8 0C439.7 0 424.3 0 409.2 0C394 0 379 0 363.8 0C348.7 0 333.3 0 318.2 0C303 0 288 0 272.8 0C257.7 0 242.3 0 227.2 0C212 0 197 0 181.8 0C166.7 0 151.3 0 136.2 0C121 0 106 0 90.8 0C75.7 0 60.3 0 45.2 0C30 0 15 0 7.5 0L0 0Z" fill="#035f82"></path><path d="M0 114L7.5 110.2C15 106.3 30 98.7 45.2 83.5C60.3 68.3 75.7 45.7 90.8 40.7C106 35.7 121 48.3 136.2 68.8C151.3 89.3 166.7 117.7 181.8 121.7C197 125.7 212 105.3 227.2 105C242.3 104.7 257.7 124.3 272.8 134.5C288 144.7 303 145.3 318.2 140.8C333.3 136.3 348.7 126.7 363.8 122.2C379 117.7 394 118.3 409.2 103.8C424.3 89.3 439.7 59.7 454.8 69.5C470 79.3 485 128.7 492.5 153.3L500 178L500 0L492.5 0C485 0 470 0 454.8 0C439.7 0 424.3 0 409.2 0C394 0 379 0 363.8 0C348.7 0 333.3 0 318.2 0C303 0 288 0 272.8 0C257.7 0 242.3 0 227.2 0C212 0 197 0 181.8 0C166.7 0 151.3 0 136.2 0C121 0 106 0 90.8 0C75.7 0 60.3 0 45.2 0C30 0 15 0 7.5 0L0 0Z" fill="#046389"></path><path d="M0 52L7.5 52C15 52 30 52 45.2 48.8C60.3 45.7 75.7 39.3 90.8 55.8C106 72.3 121 111.7 136.2 118.8C151.3 126 166.7 101 181.8 80.7C197 60.3 212 44.7 227.2 58.2C242.3 71.7 257.7 114.3 272.8 128.2C288 142 303 127 318.2 126.2C333.3 125.3 348.7 138.7 363.8 126C379 113.3 394 74.7 409.2 56.7C424.3 38.7 439.7 41.3 454.8 35.8C470 30.3 485 16.7 492.5 9.8L500 3L500 0L492.5 0C485 0 470 0 454.8 0C439.7 0 424.3 0 409.2 0C394 0 379 0 363.8 0C348.7 0 333.3 0 318.2 0C303 0 288 0 272.8 0C257.7 0 242.3 0 227.2 0C212 0 197 0 181.8 0C166.7 0 151.3 0 136.2 0C121 0 106 0 90.8 0C75.7 0 60.3 0 45.2 0C30 0 15 0 7.5 0L0 0Z" fill="#0c6990"></path><path d="M0 107L7.5 97C15 87 30 67 45.2 71.2C60.3 75.3 75.7 103.7 90.8 111.7C106 119.7 121 107.3 136.2 92.2C151.3 77 166.7 59 181.8 44.3C197 29.7 212 18.3 227.2 16.7C242.3 15 257.7 23 272.8 22.8C288 22.7 303 14.3 318.2 30.8C333.3 47.3 348.7 88.7 363.8 100C379 111.3 394 92.7 409.2 76.2C424.3 59.7 439.7 45.3 454.8 54.3C470 63.3 485 95.7 492.5 111.8L500 128L500 0L492.5 0C485 0 470 0 454.8 0C439.7 0 424.3 0 409.2 0C394 0 379 0 363.8 0C348.7 0 333.3 0 318.2 0C303 0 288 0 272.8 0C257.7 0 242.3 0 227.2 0C212 0 197 0 181.8 0C166.7 0 151.3 0 136.2 0C121 0 106 0 90.8 0C75.7 0 60.3 0 45.2 0C30 0 15 0 7.5 0L0 0Z" fill="#187096"></path><path d="M0 55L7.5 48.8C15 42.7 30 30.3 45.2 36.5C60.3 42.7 75.7 67.3 90.8 67.3C106 67.3 121 42.7 136.2 32.7C151.3 22.7 166.7 27.3 181.8 31.3C197 35.3 212 38.7 227.2 45C242.3 51.3 257.7 60.7 272.8 68.2C288 75.7 303 81.3 318.2 73.7C333.3 66 348.7 45 363.8 41.7C379 38.3 394 52.7 409.2 64.2C424.3 75.7 439.7 84.3 454.8 79.7C470 75 485 57 492.5 48L500 39L500 0L492.5 0C485 0 470 0 454.8 0C439.7 0 424.3 0 409.2 0C394 0 379 0 363.8 0C348.7 0 333.3 0 318.2 0C303 0 288 0 272.8 0C257.7 0 242.3 0 227.2 0C212 0 197 0 181.8 0C166.7 0 151.3 0 136.2 0C121 0 106 0 90.8 0C75.7 0 60.3 0 45.2 0C30 0 15 0 7.5 0L0 0Z" fill="#21769d"></path><path d="M0 2L7.5 2C15 2 30 2 45.2 9C60.3 16 75.7 30 90.8 34.7C106 39.3 121 34.7 136.2 40C151.3 45.3 166.7 60.7 181.8 55.8C197 51 212 26 227.2 15.3C242.3 4.7 257.7 8.3 272.8 17.8C288 27.3 303 42.7 318.2 41C333.3 39.3 348.7 20.7 363.8 14.8C379 9 394 16 409.2 26C424.3 36 439.7 49 454.8 50.7C470 52.3 485 42.7 492.5 37.8L500 33L500 0L492.5 0C485 0 470 0 454.8 0C439.7 0 424.3 0 409.2 0C394 0 379 0 363.8 0C348.7 0 333.3 0 318.2 0C303 0 288 0 272.8 0C257.7 0 242.3 0 227.2 0C212 0 197 0 181.8 0C166.7 0 151.3 0 136.2 0C121 0 106 0 90.8 0C75.7 0 60.3 0 45.2 0C30 0 15 0 7.5 0L0 0Z" fill="#297da3"></path><path d="M0 0L7.5 9.2C15 18.3 30 36.7 45.2 39.3C60.3 42 75.7 29 90.8 25.5C106 22 121 28 136.2 32C151.3 36 166.7 38 181.8 35.7C197 33.3 212 26.7 227.2 23C242.3 19.3 257.7 18.7 272.8 25.5C288 32.3 303 46.7 318.2 52.5C333.3 58.3 348.7 55.7 363.8 47.3C379 39 394 25 409.2 18.3C424.3 11.7 439.7 12.3 454.8 12C470 11.7 485 10.3 492.5 9.7L500 9L500 0L492.5 0C485 0 470 0 454.8 0C439.7 0 424.3 0 409.2 0C394 0 379 0 363.8 0C348.7 0 333.3 0 318.2 0C303 0 288 0 272.8 0C257.7 0 242.3 0 227.2 0C212 0 197 0 181.8 0C166.7 0 151.3 0 136.2 0C121 0 106 0 90.8 0C75.7 0 60.3 0 45.2 0C30 0 15 0 7.5 0L0 0Z" fill="#3083aa"></path><path d="M0 27L7.5 25.2C15 23.3 30 19.7 45.2 18.8C60.3 18 75.7 20 90.8 23.5C106 27 121 32 136.2 33.3C151.3 34.7 166.7 32.3 181.8 32.8C197 33.3 212 36.7 227.2 34.3C242.3 32 257.7 24 272.8 24C288 24 303 32 318.2 36.5C333.3 41 348.7 42 363.8 36C379 30 394 17 409.2 14.8C424.3 12.7 439.7 21.3 454.8 23.7C470 26 485 22 492.5 20L500 18L500 0L492.5 0C485 0 470 0 454.8 0C439.7 0 424.3 0 409.2 0C394 0 379 0 363.8 0C348.7 0 333.3 0 318.2 0C303 0 288 0 272.8 0C257.7 0 242.3 0 227.2 0C212 0 197 0 181.8 0C166.7 0 151.3 0 136.2 0C121 0 106 0 90.8 0C75.7 0 60.3 0 45.2 0C30 0 15 0 7.5 0L0 0Z" fill="#378ab0"></path></svg>