<svg width="960" height="300" viewBox="0 0 960 300" fill="none" xmlns="http://www.w3.org/2000/svg">
<g clip-path="url(#clip0)">
<path d="M0 60L7 63.5C14 67 28 74 41.8 78.3C55.7 82.7 69.3 84.3 83.2 75.8C97 67.3 111 48.7 125 40.8C139 33 153 36 167 33.8C181 31.7 195 24.3 208.8 29.7C222.7 35 236.3 53 250.2 62.5C264 72 278 73 292 74C306 75 320 76 334 69.5C348 63 362 49 375.8 46C389.7 43 403.3 51 417.2 55.5C431 60 445 61 459 61.3C473 61.7 487 61.3 501 65.2C515 69 529 77 542.8 68.2C556.7 59.3 570.3 33.7 584.2 27.5C598 21.3 612 34.7 626 46.5C640 58.3 654 68.7 668 68.7C682 68.7 696 58.3 709.8 59C723.7 59.7 737.3 71.3 751.2 71.3C765 71.3 779 59.7 793 53.8C807 48 821 48 835 48.3C849 48.7 863 49.3 876.8 47.2C890.7 45 904.3 40 918.2 40.3C932 40.7 946 46.3 953 49.2L960 52V0H953C946 0 932 0 918.2 0C904.3 0 890.7 0 876.8 0C863 0 849 0 835 0C821 0 807 0 793 0C779 0 765 0 751.2 0C737.3 0 723.7 0 709.8 0C696 0 682 0 668 0C654 0 640 0 626 0C612 0 598 0 584.2 0C570.3 0 556.7 0 542.8 0C529 0 515 0 501 0C487 0 473 0 459 0C445 0 431 0 417.2 0C403.3 0 389.7 0 375.8 0C362 0 348 0 334 0C320 0 306 0 292 0C278 0 264 0 250.2 0C236.3 0 222.7 0 208.8 0C195 0 181 0 167 0C153 0 139 0 125 0C111 0 97 0 83.2 0C69.3 0 55.7 0 41.8 0C28 0 14 0 7 0H0V60Z" fill="#008F71"/>
<path d="M0 25L7 25.3C14 25.7 28 26.3 41.8 29.5C55.7 32.7 69.3 38.3 83.2 36C97 33.7 111 23.3 125 27.5C139 31.7 153 50.3 167 56.8C181 63.3 195 57.7 208.8 51.8C222.7 46 236.3 40 250.2 43.8C264 47.7 278 61.3 292 68.5C306 75.7 320 76.3 334 74.8C348 73.3 362 69.7 375.8 58.5C389.7 47.3 403.3 28.7 417.2 23C431 17.3 445 24.7 459 32.8C473 41 487 50 501 45.8C515 41.7 529 24.3 542.8 20.7C556.7 17 570.3 27 584.2 28.3C598 29.7 612 22.3 626 23.3C640 24.3 654 33.7 668 43.7C682 53.7 696 64.3 709.8 59.8C723.7 55.3 737.3 35.7 751.2 32.7C765 29.7 779 43.3 793 42.8C807 42.3 821 27.7 835 30.5C849 33.3 863 53.7 876.8 62.3C890.7 71 904.3 68 918.2 57.5C932 47 946 29 953 20L960 11V0H953C946 0 932 0 918.2 0C904.3 0 890.7 0 876.8 0C863 0 849 0 835 0C821 0 807 0 793 0C779 0 765 0 751.2 0C737.3 0 723.7 0 709.8 0C696 0 682 0 668 0C654 0 640 0 626 0C612 0 598 0 584.2 0C570.3 0 556.7 0 542.8 0C529 0 515 0 501 0C487 0 473 0 459 0C445 0 431 0 417.2 0C403.3 0 389.7 0 375.8 0C362 0 348 0 334 0C320 0 306 0 292 0C278 0 264 0 250.2 0C236.3 0 222.7 0 208.8 0C195 0 181 0 167 0C153 0 139 0 125 0C111 0 97 0 83.2 0C69.3 0 55.7 0 41.8 0C28 0 14 0 7 0H0V25Z" fill="#00A07E"/>
<path d="M0 5L7 14.5C14 24 28 43 41.8 49.3C55.7 55.7 69.3 49.3 83.2 48.5C97 47.7 111 52.3 125 48.3C139 44.3 153 31.7 167 29.7C181 27.7 195 36.3 208.8 40.5C222.7 44.7 236.3 44.3 250.2 42.8C264 41.3 278 38.7 292 41C306 43.3 320 50.7 334 51C348 51.3 362 44.7 375.8 42.5C389.7 40.3 403.3 42.7 417.2 39.3C431 36 445 27 459 26.2C473 25.3 487 32.7 501 33C515 33.3 529 26.7 542.8 24.7C556.7 22.7 570.3 25.3 584.2 26.7C598 28 612 28 626 28.3C640 28.7 654 29.3 668 27.5C682 25.7 696 21.3 709.8 26.7C723.7 32 737.3 47 751.2 52.3C765 57.7 779 53.3 793 47.7C807 42 821 35 835 36.2C849 37.3 863 46.7 876.8 51C890.7 55.3 904.3 54.7 918.2 48C932 41.3 946 28.7 953 22.3L960 16V0H953C946 0 932 0 918.2 0C904.3 0 890.7 0 876.8 0C863 0 849 0 835 0C821 0 807 0 793 0C779 0 765 0 751.2 0C737.3 0 723.7 0 709.8 0C696 0 682 0 668 0C654 0 640 0 626 0C612 0 598 0 584.2 0C570.3 0 556.7 0 542.8 0C529 0 515 0 501 0C487 0 473 0 459 0C445 0 431 0 417.2 0C403.3 0 389.7 0 375.8 0C362 0 348 0 334 0C320 0 306 0 292 0C278 0 264 0 250.2 0C236.3 0 222.7 0 208.8 0C195 0 181 0 167 0C153 0 139 0 125 0C111 0 97 0 83.2 0C69.3 0 55.7 0 41.8 0C28 0 14 0 7 0H0V5Z" fill="#01B18C"/>
<path d="M0 35L7 32.5C14 30 28 25 41.8 26.3C55.7 27.7 69.3 35.3 83.2 40.5C97 45.7 111 48.3 125 44.5C139 40.7 153 30.3 167 23C181 15.7 195 11.3 208.8 12.8C222.7 14.3 236.3 21.7 250.2 28.7C264 35.7 278 42.3 292 40.2C306 38 320 27 334 24.8C348 22.7 362 29.3 375.8 34.7C389.7 40 403.3 44 417.2 39.2C431 34.3 445 20.7 459 16.8C473 13 487 19 501 21.3C515 23.7 529 22.3 542.8 21.7C556.7 21 570.3 21 584.2 25.5C598 30 612 39 626 43.5C640 48 654 48 668 48.7C682 49.3 696 50.7 709.8 44.5C723.7 38.3 737.3 24.7 751.2 24.7C765 24.7 779 38.3 793 40C807 41.7 821 31.3 835 28.8C849 26.3 863 31.7 876.8 31.2C890.7 30.7 904.3 24.3 918.2 26.8C932 29.3 946 40.7 953 46.3L960 52V0H953C946 0 932 0 918.2 0C904.3 0 890.7 0 876.8 0C863 0 849 0 835 0C821 0 807 0 793 0C779 0 765 0 751.2 0C737.3 0 723.7 0 709.8 0C696 0 682 0 668 0C654 0 640 0 626 0C612 0 598 0 584.2 0C570.3 0 556.7 0 542.8 0C529 0 515 0 501 0C487 0 473 0 459 0C445 0 431 0 417.2 0C403.3 0 389.7 0 375.8 0C362 0 348 0 334 0C320 0 306 0 292 0C278 0 264 0 250.2 0C236.3 0 222.7 0 208.8 0C195 0 181 0 167 0C153 0 139 0 125 0C111 0 97 0 83.2 0C69.3 0 55.7 0 41.8 0C28 0 14 0 7 0H0V35Z" fill="#02C39A"/>
<path d="M0 19L7 20.3C14 21.7 28 24.3 41.8 27.7C55.7 31 69.3 35 83.2 35.3C97 35.7 111 32.3 125 29C139 25.7 153 22.3 167 18.8C181 15.3 195 11.7 208.8 15.8C222.7 20 236.3 32 250.2 33.2C264 34.3 278 24.7 292 19.8C306 15 320 15 334 17.5C348 20 362 25 375.8 25.5C389.7 26 403.3 22 417.2 21.7C431 21.3 445 24.7 459 23C473 21.3 487 14.7 501 10.8C515 7 529 6 542.8 8C556.7 10 570.3 15 584.2 18.3C598 21.7 612 23.3 626 21.3C640 19.3 654 13.7 668 15.7C682 17.7 696 27.3 709.8 28.7C723.7 30 737.3 23 751.2 17.2C765 11.3 779 6.7 793 4.5C807 2.3 821 2.7 835 6C849 9.3 863 15.7 876.8 16.3C890.7 17 904.3 12 918.2 13.8C932 15.7 946 24.3 953 28.7L960 33V0H953C946 0 932 0 918.2 0C904.3 0 890.7 0 876.8 0C863 0 849 0 835 0C821 0 807 0 793 0C779 0 765 0 751.2 0C737.3 0 723.7 0 709.8 0C696 0 682 0 668 0C654 0 640 0 626 0C612 0 598 0 584.2 0C570.3 0 556.7 0 542.8 0C529 0 515 0 501 0C487 0 473 0 459 0C445 0 431 0 417.2 0C403.3 0 389.7 0 375.8 0C362 0 348 0 334 0C320 0 306 0 292 0C278 0 264 0 250.2 0C236.3 0 222.7 0 208.8 0C195 0 181 0 167 0C153 0 139 0 125 0C111 0 97 0 83.2 0C69.3 0 55.7 0 41.8 0C28 0 14 0 7 0H0V19Z" fill="#2CCAA4"/>
<path d="M0 1L7 0.8C14 0.7 28 0.3 41.8 1.2C55.7 2 69.3 4 83.2 5.5C97 7 111 8 125 9C139 10 153 11 167 12.7C181 14.3 195 16.7 208.8 18C222.7 19.3 236.3 19.7 250.2 20.7C264 21.7 278 23.3 292 21.2C306 19 320 13 334 13.7C348 14.3 362 21.7 375.8 24.2C389.7 26.7 403.3 24.3 417.2 25C431 25.7 445 29.3 459 26C473 22.7 487 12.3 501 7C515 1.7 529 1.3 542.8 2C556.7 2.7 570.3 4.3 584.2 4.7C598 5 612 4 626 6.7C640 9.3 654 15.7 668 19.7C682 23.7 696 25.3 709.8 22.8C723.7 20.3 737.3 13.7 751.2 10.3C765 7 779 7 793 8.5C807 10 821 13 835 14.5C849 16 863 16 876.8 13.7C890.7 11.3 904.3 6.7 918.2 6.7C932 6.7 946 11.3 953 13.7L960 16V0H953C946 0 932 0 918.2 0C904.3 0 890.7 0 876.8 0C863 0 849 0 835 0C821 0 807 0 793 0C779 0 765 0 751.2 0C737.3 0 723.7 0 709.8 0C696 0 682 0 668 0C654 0 640 0 626 0C612 0 598 0 584.2 0C570.3 0 556.7 0 542.8 0C529 0 515 0 501 0C487 0 473 0 459 0C445 0 431 0 417.2 0C403.3 0 389.7 0 375.8 0C362 0 348 0 334 0C320 0 306 0 292 0C278 0 264 0 250.2 0C236.3 0 222.7 0 208.8 0C195 0 181 0 167 0C153 0 139 0 125 0C111 0 97 0 83.2 0C69.3 0 55.7 0 41.8 0C28 0 14 0 7 0H0V1Z" fill="#42D0AD"/>
<path d="M0 17L7 15C14 13 28 9 41.8 9.7C55.7 10.3 69.3 15.7 83.2 15C97 14.3 111 7.7 125 4.3C139 1 153 1 167 4C181 7 195 13 208.8 15.8C222.7 18.7 236.3 18.3 250.2 17.2C264 16 278 14 292 14.2C306 14.3 320 16.7 334 15.2C348 13.7 362 8.3 375.8 5.2C389.7 2 403.3 1 417.2 3C431 5 445 10 459 13.5C473 17 487 19 501 18C515 17 529 13 542.8 11.8C556.7 10.7 570.3 12.3 584.2 12.2C598 12 612 10 626 10.2C640 10.3 654 12.7 668 14C682 15.3 696 15.7 709.8 13.5C723.7 11.3 737.3 6.7 751.2 6C765 5.3 779 8.7 793 9.5C807 10.3 821 8.7 835 7.7C849 6.7 863 6.3 876.8 8C890.7 9.7 904.3 13.3 918.2 14.7C932 16 946 15 953 14.5L960 14V0H953C946 0 932 0 918.2 0C904.3 0 890.7 0 876.8 0C863 0 849 0 835 0C821 0 807 0 793 0C779 0 765 0 751.2 0C737.3 0 723.7 0 709.8 0C696 0 682 0 668 0C654 0 640 0 626 0C612 0 598 0 584.2 0C570.3 0 556.7 0 542.8 0C529 0 515 0 501 0C487 0 473 0 459 0C445 0 431 0 417.2 0C403.3 0 389.7 0 375.8 0C362 0 348 0 334 0C320 0 306 0 292 0C278 0 264 0 250.2 0C236.3 0 222.7 0 208.8 0C195 0 181 0 167 0C153 0 139 0 125 0C111 0 97 0 83.2 0C69.3 0 55.7 0 41.8 0C28 0 14 0 7 0H0V17Z" fill="#54D7B7"/>
<path d="M0 247.316L6.8 251.516C13.7 255.616 27.3 264.016 41.2 267.616C55 271.316 69 270.316 82.8 270.016C96.7 269.616 110.3 270.016 124 274.016C137.7 278.016 151.3 285.616 165.2 284.016C179 282.316 193 271.316 206.8 270.616C220.7 270.016 234.3 279.616 248 285.116C261.7 290.616 275.3 292.016 289 286.516C302.7 281.016 316.3 268.616 330.2 260.016C344 251.316 358 246.316 371.8 243.316C385.7 240.316 399.3 239.316 413 246.016C426.7 252.616 440.3 267.016 454.2 269.816C468 272.616 482 264.016 495.8 258.316C509.7 252.616 523.3 250.016 537 249.116C550.7 248.316 564.3 249.316 578.2 254.116C592 259.016 606 267.616 619.8 272.516C633.7 277.316 647.3 278.316 661 280.516C674.7 282.616 688.3 286.016 702 284.316C715.7 282.616 729.3 276.016 743.2 269.116C757 262.316 771 255.316 784.8 255.816C798.7 256.316 812.3 264.316 826 266.516C839.7 268.616 853.3 265.016 867.2 261.516C881 258.016 895 254.616 908.8 257.516C922.7 260.316 936.3 269.316 943.2 273.816L950 278.316V300.316H943.2C936.3 300.316 922.7 300.316 908.8 300.316C895 300.316 881 300.316 867.2 300.316C853.3 300.316 839.7 300.316 826 300.316C812.3 300.316 798.7 300.316 784.8 300.316C771 300.316 757 300.316 743.2 300.316C729.3 300.316 715.7 300.316 702 300.316C688.3 300.316 674.7 300.316 661 300.316C647.3 300.316 633.7 300.316 619.8 300.316C606 300.316 592 300.316 578.2 300.316C564.3 300.316 550.7 300.316 537 300.316C523.3 300.316 509.7 300.316 495.8 300.316C482 300.316 468 300.316 454.2 300.316C440.3 300.316 426.7 300.316 413 300.316C399.3 300.316 385.7 300.316 371.8 300.316C358 300.316 344 300.316 330.2 300.316C316.3 300.316 302.7 300.316 289 300.316C275.3 300.316 261.7 300.316 248 300.316C234.3 300.316 220.7 300.316 206.8 300.316C193 300.316 179 300.316 165.2 300.316C151.3 300.316 137.7 300.316 124 300.316C110.3 300.316 96.7 300.316 82.8 300.316C69 300.316 55 300.316 41.2 300.316C27.3 300.316 13.7 300.316 6.8 300.316H0V247.316Z" fill="#008F71"/>
<path d="M0 278.316L6.8 280.116C13.7 282.016 27.3 285.616 41.2 281.816C55 278.016 69 266.616 82.8 267.016C96.7 267.316 110.3 279.316 124 284.816C137.7 290.316 151.3 289.316 165.2 283.616C179 278.016 193 267.616 206.8 264.816C220.7 262.016 234.3 266.616 248 268.516C261.7 270.316 275.3 269.316 289 271.316C302.7 273.316 316.3 278.316 330.2 277.116C344 276.016 358 268.616 371.8 266.616C385.7 264.616 399.3 268.016 413 271.616C426.7 275.316 440.3 279.316 454.2 282.116C468 285.016 482 286.616 495.8 285.616C509.7 284.616 523.3 281.016 537 279.116C550.7 277.316 564.3 277.316 578.2 276.616C592 276.016 606 274.616 619.8 276.816C633.7 279.016 647.3 284.616 661 280.316C674.7 276.016 688.3 261.616 702 259.316C715.7 257.016 729.3 266.616 743.2 274.116C757 281.616 771 287.016 784.8 286.516C798.7 286.016 812.3 279.616 826 274.316C839.7 269.016 853.3 264.616 867.2 262.816C881 261.016 895 261.616 908.8 260.016C922.7 258.316 936.3 254.316 943.2 252.316L950 250.316V300.316H943.2C936.3 300.316 922.7 300.316 908.8 300.316C895 300.316 881 300.316 867.2 300.316C853.3 300.316 839.7 300.316 826 300.316C812.3 300.316 798.7 300.316 784.8 300.316C771 300.316 757 300.316 743.2 300.316C729.3 300.316 715.7 300.316 702 300.316C688.3 300.316 674.7 300.316 661 300.316C647.3 300.316 633.7 300.316 619.8 300.316C606 300.316 592 300.316 578.2 300.316C564.3 300.316 550.7 300.316 537 300.316C523.3 300.316 509.7 300.316 495.8 300.316C482 300.316 468 300.316 454.2 300.316C440.3 300.316 426.7 300.316 413 300.316C399.3 300.316 385.7 300.316 371.8 300.316C358 300.316 344 300.316 330.2 300.316C316.3 300.316 302.7 300.316 289 300.316C275.3 300.316 261.7 300.316 248 300.316C234.3 300.316 220.7 300.316 206.8 300.316C193 300.316 179 300.316 165.2 300.316C151.3 300.316 137.7 300.316 124 300.316C110.3 300.316 96.7 300.316 82.8 300.316C69 300.316 55 300.316 41.2 300.316C27.3 300.316 13.7 300.316 6.8 300.316H0V278.316Z" fill="#00A07E"/>
<path d="M0 288.316L6.8 285.116C13.7 282.016 27.3 275.616 41.2 273.316C55 271.016 69 272.616 82.8 273.816C96.7 275.016 110.3 275.616 124 273.316C137.7 271.016 151.3 265.616 165.2 262.316C179 259.016 193 257.616 206.8 258.516C220.7 259.316 234.3 262.316 248 263.116C261.7 264.016 275.3 262.616 289 267.316C302.7 272.016 316.3 282.616 330.2 282.016C344 281.316 358 269.316 371.8 267.016C385.7 264.616 399.3 272.016 413 274.816C426.7 277.616 440.3 276.016 454.2 276.116C468 276.316 482 278.316 495.8 278.616C509.7 279.016 523.3 277.616 537 280.116C550.7 282.616 564.3 289.016 578.2 291.116C592 293.316 606 291.316 619.8 286.816C633.7 282.316 647.3 275.316 661 269.316C674.7 263.316 688.3 258.316 702 260.116C715.7 262.016 729.3 270.616 743.2 275.616C757 280.616 771 282.016 784.8 277.816C798.7 273.616 812.3 264.016 826 263.816C839.7 263.616 853.3 273.016 867.2 276.116C881 279.316 895 276.316 908.8 278.016C922.7 279.616 936.3 286.016 943.2 289.116L950 292.316V300.316H943.2C936.3 300.316 922.7 300.316 908.8 300.316C895 300.316 881 300.316 867.2 300.316C853.3 300.316 839.7 300.316 826 300.316C812.3 300.316 798.7 300.316 784.8 300.316C771 300.316 757 300.316 743.2 300.316C729.3 300.316 715.7 300.316 702 300.316C688.3 300.316 674.7 300.316 661 300.316C647.3 300.316 633.7 300.316 619.8 300.316C606 300.316 592 300.316 578.2 300.316C564.3 300.316 550.7 300.316 537 300.316C523.3 300.316 509.7 300.316 495.8 300.316C482 300.316 468 300.316 454.2 300.316C440.3 300.316 426.7 300.316 413 300.316C399.3 300.316 385.7 300.316 371.8 300.316C358 300.316 344 300.316 330.2 300.316C316.3 300.316 302.7 300.316 289 300.316C275.3 300.316 261.7 300.316 248 300.316C234.3 300.316 220.7 300.316 206.8 300.316C193 300.316 179 300.316 165.2 300.316C151.3 300.316 137.7 300.316 124 300.316C110.3 300.316 96.7 300.316 82.8 300.316C69 300.316 55 300.316 41.2 300.316C27.3 300.316 13.7 300.316 6.8 300.316H0V288.316Z" fill="#01B18C"/>
<path d="M0 293.316L6.8 288.516C13.7 283.616 27.3 274.016 41.2 270.516C55 267.016 69 269.616 82.8 274.516C96.7 279.316 110.3 286.316 124 284.616C137.7 283.016 151.3 272.616 165.2 269.116C179 265.616 193 269.016 206.8 271.816C220.7 274.616 234.3 277.016 248 275.316C261.7 273.616 275.3 268.016 289 267.816C302.7 267.616 316.3 273.016 330.2 274.116C344 275.316 358 272.316 371.8 274.016C385.7 275.616 399.3 282.016 413 282.816C426.7 283.616 440.3 279.016 454.2 279.116C468 279.316 482 284.316 495.8 283.016C509.7 281.616 523.3 274.016 537 270.616C550.7 267.316 564.3 268.316 578.2 269.116C592 270.016 606 270.616 619.8 273.516C633.7 276.316 647.3 281.316 661 284.316C674.7 287.316 688.3 288.316 702 286.016C715.7 283.616 729.3 278.016 743.2 278.516C757 279.016 771 285.616 784.8 284.616C798.7 283.616 812.3 275.016 826 274.816C839.7 274.616 853.3 283.016 867.2 282.816C881 282.616 895 274.016 908.8 269.616C922.7 265.316 936.3 265.316 943.2 265.316H950V300.316H943.2C936.3 300.316 922.7 300.316 908.8 300.316C895 300.316 881 300.316 867.2 300.316C853.3 300.316 839.7 300.316 826 300.316C812.3 300.316 798.7 300.316 784.8 300.316C771 300.316 757 300.316 743.2 300.316C729.3 300.316 715.7 300.316 702 300.316C688.3 300.316 674.7 300.316 661 300.316C647.3 300.316 633.7 300.316 619.8 300.316C606 300.316 592 300.316 578.2 300.316C564.3 300.316 550.7 300.316 537 300.316C523.3 300.316 509.7 300.316 495.8 300.316C482 300.316 468 300.316 454.2 300.316C440.3 300.316 426.7 300.316 413 300.316C399.3 300.316 385.7 300.316 371.8 300.316C358 300.316 344 300.316 330.2 300.316C316.3 300.316 302.7 300.316 289 300.316C275.3 300.316 261.7 300.316 248 300.316C234.3 300.316 220.7 300.316 206.8 300.316C193 300.316 179 300.316 165.2 300.316C151.3 300.316 137.7 300.316 124 300.316C110.3 300.316 96.7 300.316 82.8 300.316C69 300.316 55 300.316 41.2 300.316C27.3 300.316 13.7 300.316 6.8 300.316H0V293.316Z" fill="#02C39A"/>
<path d="M0 295.316L6.8 292.116C13.7 289.016 27.3 282.616 41.2 278.616C55 274.616 69 273.016 82.8 272.316C96.7 271.616 110.3 272.016 124 273.816C137.7 275.616 151.3 279.016 165.2 281.616C179 284.316 193 286.316 206.8 287.516C220.7 288.616 234.3 289.016 248 288.516C261.7 288.016 275.3 286.616 289 286.616C302.7 286.616 316.3 288.016 330.2 286.316C344 284.616 358 280.016 371.8 277.816C385.7 275.616 399.3 276.016 413 276.016C426.7 276.016 440.3 275.616 454.2 278.516C468 281.316 482 287.316 495.8 286.516C509.7 285.616 523.3 278.016 537 275.816C550.7 273.616 564.3 277.016 578.2 279.816C592 282.616 606 285.016 619.8 284.116C633.7 283.316 647.3 279.316 661 277.316C674.7 275.316 688.3 275.316 702 277.616C715.7 280.016 729.3 284.616 743.2 287.516C757 290.316 771 291.316 784.8 290.616C798.7 290.016 812.3 287.616 826 287.816C839.7 288.016 853.3 290.616 867.2 288.116C881 285.616 895 278.016 908.8 275.116C922.7 272.316 936.3 274.316 943.2 275.316L950 276.316V300.316H943.2C936.3 300.316 922.7 300.316 908.8 300.316C895 300.316 881 300.316 867.2 300.316C853.3 300.316 839.7 300.316 826 300.316C812.3 300.316 798.7 300.316 784.8 300.316C771 300.316 757 300.316 743.2 300.316C729.3 300.316 715.7 300.316 702 300.316C688.3 300.316 674.7 300.316 661 300.316C647.3 300.316 633.7 300.316 619.8 300.316C606 300.316 592 300.316 578.2 300.316C564.3 300.316 550.7 300.316 537 300.316C523.3 300.316 509.7 300.316 495.8 300.316C482 300.316 468 300.316 454.2 300.316C440.3 300.316 426.7 300.316 413 300.316C399.3 300.316 385.7 300.316 371.8 300.316C358 300.316 344 300.316 330.2 300.316C316.3 300.316 302.7 300.316 289 300.316C275.3 300.316 261.7 300.316 248 300.316C234.3 300.316 220.7 300.316 206.8 300.316C193 300.316 179 300.316 165.2 300.316C151.3 300.316 137.7 300.316 124 300.316C110.3 300.316 96.7 300.316 82.8 300.316C69 300.316 55 300.316 41.2 300.316C27.3 300.316 13.7 300.316 6.8 300.316H0V295.316Z" fill="#2CCAA4"/>
<path d="M0 294.316L6.8 292.516C13.7 290.616 27.3 287.016 41.2 286.316C55 285.616 69 288.016 82.8 289.616C96.7 291.316 110.3 292.316 124 290.316C137.7 288.316 151.3 283.316 165.2 283.516C179 283.616 193 289.016 206.8 288.616C220.7 288.316 234.3 282.316 248 281.516C261.7 280.616 275.3 285.016 289 286.016C302.7 287.016 316.3 284.616 330.2 284.516C344 284.316 358 286.316 371.8 286.016C385.7 285.616 399.3 283.016 413 283.516C426.7 284.016 440.3 287.616 454.2 288.816C468 290.016 482 288.616 495.8 287.516C509.7 286.316 523.3 285.316 537 286.616C550.7 288.016 564.3 291.616 578.2 292.616C592 293.616 606 292.016 619.8 290.116C633.7 288.316 647.3 286.316 661 287.116C674.7 288.016 688.3 291.616 702 293.616C715.7 295.616 729.3 296.016 743.2 293.116C757 290.316 771 284.316 784.8 281.316C798.7 278.316 812.3 278.316 826 278.116C839.7 278.016 853.3 277.616 867.2 279.816C881 282.016 895 286.616 908.8 288.516C922.7 290.316 936.3 289.316 943.2 288.816L950 288.316V300.316H943.2C936.3 300.316 922.7 300.316 908.8 300.316C895 300.316 881 300.316 867.2 300.316C853.3 300.316 839.7 300.316 826 300.316C812.3 300.316 798.7 300.316 784.8 300.316C771 300.316 757 300.316 743.2 300.316C729.3 300.316 715.7 300.316 702 300.316C688.3 300.316 674.7 300.316 661 300.316C647.3 300.316 633.7 300.316 619.8 300.316C606 300.316 592 300.316 578.2 300.316C564.3 300.316 550.7 300.316 537 300.316C523.3 300.316 509.7 300.316 495.8 300.316C482 300.316 468 300.316 454.2 300.316C440.3 300.316 426.7 300.316 413 300.316C399.3 300.316 385.7 300.316 371.8 300.316C358 300.316 344 300.316 330.2 300.316C316.3 300.316 302.7 300.316 289 300.316C275.3 300.316 261.7 300.316 248 300.316C234.3 300.316 220.7 300.316 206.8 300.316C193 300.316 179 300.316 165.2 300.316C151.3 300.316 137.7 300.316 124 300.316C110.3 300.316 96.7 300.316 82.8 300.316C69 300.316 55 300.316 41.2 300.316C27.3 300.316 13.7 300.316 6.8 300.316H0V294.316Z" fill="#42D0AD"/>
<path d="M0 292.316L6.8 291.516C13.7 290.616 27.3 289.016 41.2 289.316C55 289.616 69 292.016 82.8 293.116C96.7 294.316 110.3 294.316 124 294.516C137.7 294.616 151.3 295.016 165.2 294.016C179 293.016 193 290.616 206.8 289.816C220.7 289.016 234.3 289.616 248 289.016C261.7 288.316 275.3 286.316 289 286.316C302.7 286.316 316.3 288.316 330.2 290.516C344 292.616 358 295.016 371.8 294.616C385.7 294.316 399.3 291.316 413 289.116C426.7 287.016 440.3 285.616 454.2 287.016C468 288.316 482 292.316 495.8 294.116C509.7 296.016 523.3 295.616 537 294.516C550.7 293.316 564.3 291.316 578.2 291.316C592 291.316 606 293.316 619.8 293.016C633.7 292.616 647.3 290.016 661 290.316C674.7 290.616 688.3 294.016 702 294.516C715.7 295.016 729.3 292.616 743.2 290.516C757 288.316 771 286.316 784.8 286.616C798.7 287.016 812.3 289.616 826 292.016C839.7 294.316 853.3 296.316 867.2 295.816C881 295.316 895 292.316 908.8 289.816C922.7 287.316 936.3 285.316 943.2 284.316L950 283.316V300.316H943.2C936.3 300.316 922.7 300.316 908.8 300.316C895 300.316 881 300.316 867.2 300.316C853.3 300.316 839.7 300.316 826 300.316C812.3 300.316 798.7 300.316 784.8 300.316C771 300.316 757 300.316 743.2 300.316C729.3 300.316 715.7 300.316 702 300.316C688.3 300.316 674.7 300.316 661 300.316C647.3 300.316 633.7 300.316 619.8 300.316C606 300.316 592 300.316 578.2 300.316C564.3 300.316 550.7 300.316 537 300.316C523.3 300.316 509.7 300.316 495.8 300.316C482 300.316 468 300.316 454.2 300.316C440.3 300.316 426.7 300.316 413 300.316C399.3 300.316 385.7 300.316 371.8 300.316C358 300.316 344 300.316 330.2 300.316C316.3 300.316 302.7 300.316 289 300.316C275.3 300.316 261.7 300.316 248 300.316C234.3 300.316 220.7 300.316 206.8 300.316C193 300.316 179 300.316 165.2 300.316C151.3 300.316 137.7 300.316 124 300.316C110.3 300.316 96.7 300.316 82.8 300.316C69 300.316 55 300.316 41.2 300.316C27.3 300.316 13.7 300.316 6.8 300.316H0V292.316Z" fill="#54D7B7"/>
</g>
<defs>
<clipPath id="clip0">
<rect width="960" height="300" fill="white"/>
</clipPath>
</defs>
</svg>
