<svg id="visual" viewBox="0 0 960 300" width="960" height="300" xmlns="http://www.w3.org/2000/svg" xmlns:xlink="http://www.w3.org/1999/xlink" version="1.1"><path d="M0 234L7 230.3C14 226.7 28 219.3 41.8 227C55.7 234.7 69.3 257.3 83.2 265C97 272.7 111 265.3 125 256.8C139 248.3 153 238.7 167 238C181 237.3 195 245.7 208.8 246.2C222.7 246.7 236.3 239.3 250.2 233.7C264 228 278 224 292 230.2C306 236.3 320 252.7 334 263.8C348 275 362 281 375.8 274.5C389.7 268 403.3 249 417.2 240.2C431 231.3 445 232.7 459 234.2C473 235.7 487 237.3 501 245.3C515 253.3 529 267.7 542.8 273.2C556.7 278.7 570.3 275.3 584.2 274.2C598 273 612 274 626 277C640 280 654 285 668 277.8C682 270.7 696 251.3 709.8 245.8C723.7 240.3 737.3 248.7 751.2 246.3C765 244 779 231 793 233.2C807 235.3 821 252.7 835 264C849 275.3 863 280.7 876.8 282.8C890.7 285 904.3 284 918.2 272.7C932 261.3 946 239.7 953 228.8L960 218L960 301L953 301C946 301 932 301 918.2 301C904.3 301 890.7 301 876.8 301C863 301 849 301 835 301C821 301 807 301 793 301C779 301 765 301 751.2 301C737.3 301 723.7 301 709.8 301C696 301 682 301 668 301C654 301 640 301 626 301C612 301 598 301 584.2 301C570.3 301 556.7 301 542.8 301C529 301 515 301 501 301C487 301 473 301 459 301C445 301 431 301 417.2 301C403.3 301 389.7 301 375.8 301C362 301 348 301 334 301C320 301 306 301 292 301C278 301 264 301 250.2 301C236.3 301 222.7 301 208.8 301C195 301 181 301 167 301C153 301 139 301 125 301C111 301 97 301 83.2 301C69.3 301 55.7 301 41.8 301C28 301 14 301 7 301L0 301Z" fill="#004b67"></path><path d="M0 290L7 283C14 276 28 262 41.8 252C55.7 242 69.3 236 83.2 232.7C97 229.3 111 228.7 125 236.3C139 244 153 260 167 267.7C181 275.3 195 274.7 208.8 270C222.7 265.3 236.3 256.7 250.2 255C264 253.3 278 258.7 292 264.3C306 270 320 276 334 272.2C348 268.3 362 254.7 375.8 252C389.7 249.3 403.3 257.7 417.2 260.2C431 262.7 445 259.3 459 260.2C473 261 487 266 501 270.8C515 275.7 529 280.3 542.8 280.8C556.7 281.3 570.3 277.7 584.2 277.8C598 278 612 282 626 281.3C640 280.7 654 275.3 668 267C682 258.7 696 247.3 709.8 244.5C723.7 241.7 737.3 247.3 751.2 246C765 244.7 779 236.3 793 234.5C807 232.7 821 237.3 835 247.3C849 257.3 863 272.7 876.8 275.8C890.7 279 904.3 270 918.2 260.8C932 251.7 946 242.3 953 237.7L960 233L960 301L953 301C946 301 932 301 918.2 301C904.3 301 890.7 301 876.8 301C863 301 849 301 835 301C821 301 807 301 793 301C779 301 765 301 751.2 301C737.3 301 723.7 301 709.8 301C696 301 682 301 668 301C654 301 640 301 626 301C612 301 598 301 584.2 301C570.3 301 556.7 301 542.8 301C529 301 515 301 501 301C487 301 473 301 459 301C445 301 431 301 417.2 301C403.3 301 389.7 301 375.8 301C362 301 348 301 334 301C320 301 306 301 292 301C278 301 264 301 250.2 301C236.3 301 222.7 301 208.8 301C195 301 181 301 167 301C153 301 139 301 125 301C111 301 97 301 83.2 301C69.3 301 55.7 301 41.8 301C28 301 14 301 7 301L0 301Z" fill="#015473"></path><path d="M0 281L7 279.8C14 278.7 28 276.3 41.8 272C55.7 267.7 69.3 261.3 83.2 257.7C97 254 111 253 125 256.8C139 260.7 153 269.3 167 274.7C181 280 195 282 208.8 282.7C222.7 283.3 236.3 282.7 250.2 278.5C264 274.3 278 266.7 292 259C306 251.3 320 243.7 334 247.8C348 252 362 268 375.8 276.8C389.7 285.7 403.3 287.3 417.2 280.5C431 273.7 445 258.3 459 252.5C473 246.7 487 250.3 501 256.3C515 262.3 529 270.7 542.8 276C556.7 281.3 570.3 283.7 584.2 283.3C598 283 612 280 626 281C640 282 654 287 668 285.2C682 283.3 696 274.7 709.8 272.5C723.7 270.3 737.3 274.7 751.2 271.7C765 268.7 779 258.3 793 259C807 259.7 821 271.3 835 276.8C849 282.3 863 281.7 876.8 282.5C890.7 283.3 904.3 285.7 918.2 284.3C932 283 946 278 953 275.5L960 273L960 301L953 301C946 301 932 301 918.2 301C904.3 301 890.7 301 876.8 301C863 301 849 301 835 301C821 301 807 301 793 301C779 301 765 301 751.2 301C737.3 301 723.7 301 709.8 301C696 301 682 301 668 301C654 301 640 301 626 301C612 301 598 301 584.2 301C570.3 301 556.7 301 542.8 301C529 301 515 301 501 301C487 301 473 301 459 301C445 301 431 301 417.2 301C403.3 301 389.7 301 375.8 301C362 301 348 301 334 301C320 301 306 301 292 301C278 301 264 301 250.2 301C236.3 301 222.7 301 208.8 301C195 301 181 301 167 301C153 301 139 301 125 301C111 301 97 301 83.2 301C69.3 301 55.7 301 41.8 301C28 301 14 301 7 301L0 301Z" fill="#025d80"></path><path d="M0 291L7 284.8C14 278.7 28 266.3 41.8 260C55.7 253.7 69.3 253.3 83.2 258.2C97 263 111 273 125 272.7C139 272.3 153 261.7 167 258C181 254.3 195 257.7 208.8 262.5C222.7 267.3 236.3 273.7 250.2 277.8C264 282 278 284 292 278.7C306 273.3 320 260.7 334 261.8C348 263 362 278 375.8 278.3C389.7 278.7 403.3 264.3 417.2 256.8C431 249.3 445 248.7 459 249.5C473 250.3 487 252.7 501 260.2C515 267.7 529 280.3 542.8 281.5C556.7 282.7 570.3 272.3 584.2 267.3C598 262.3 612 262.7 626 262.3C640 262 654 261 668 263.7C682 266.3 696 272.7 709.8 273.7C723.7 274.7 737.3 270.3 751.2 268.2C765 266 779 266 793 268.2C807 270.3 821 274.7 835 271.3C849 268 863 257 876.8 254.8C890.7 252.7 904.3 259.3 918.2 264.2C932 269 946 272 953 273.5L960 275L960 301L953 301C946 301 932 301 918.2 301C904.3 301 890.7 301 876.8 301C863 301 849 301 835 301C821 301 807 301 793 301C779 301 765 301 751.2 301C737.3 301 723.7 301 709.8 301C696 301 682 301 668 301C654 301 640 301 626 301C612 301 598 301 584.2 301C570.3 301 556.7 301 542.8 301C529 301 515 301 501 301C487 301 473 301 459 301C445 301 431 301 417.2 301C403.3 301 389.7 301 375.8 301C362 301 348 301 334 301C320 301 306 301 292 301C278 301 264 301 250.2 301C236.3 301 222.7 301 208.8 301C195 301 181 301 167 301C153 301 139 301 125 301C111 301 97 301 83.2 301C69.3 301 55.7 301 41.8 301C28 301 14 301 7 301L0 301Z" fill="#05668d"></path><path d="M0 281L7 279.3C14 277.7 28 274.3 41.8 274C55.7 273.7 69.3 276.3 83.2 276.5C97 276.7 111 274.3 125 273.8C139 273.3 153 274.7 167 273.7C181 272.7 195 269.3 208.8 269C222.7 268.7 236.3 271.3 250.2 272.2C264 273 278 272 292 271.8C306 271.7 320 272.3 334 272C348 271.7 362 270.3 375.8 272.2C389.7 274 403.3 279 417.2 278.8C431 278.7 445 273.3 459 270C473 266.7 487 265.3 501 266.7C515 268 529 272 542.8 274C556.7 276 570.3 276 584.2 278.5C598 281 612 286 626 286.5C640 287 654 283 668 277.7C682 272.3 696 265.7 709.8 265.7C723.7 265.7 737.3 272.3 751.2 277.7C765 283 779 287 793 286.2C807 285.3 821 279.7 835 275.5C849 271.3 863 268.7 876.8 266.3C890.7 264 904.3 262 918.2 260.8C932 259.7 946 259.3 953 259.2L960 259L960 301L953 301C946 301 932 301 918.2 301C904.3 301 890.7 301 876.8 301C863 301 849 301 835 301C821 301 807 301 793 301C779 301 765 301 751.2 301C737.3 301 723.7 301 709.8 301C696 301 682 301 668 301C654 301 640 301 626 301C612 301 598 301 584.2 301C570.3 301 556.7 301 542.8 301C529 301 515 301 501 301C487 301 473 301 459 301C445 301 431 301 417.2 301C403.3 301 389.7 301 375.8 301C362 301 348 301 334 301C320 301 306 301 292 301C278 301 264 301 250.2 301C236.3 301 222.7 301 208.8 301C195 301 181 301 167 301C153 301 139 301 125 301C111 301 97 301 83.2 301C69.3 301 55.7 301 41.8 301C28 301 14 301 7 301L0 301Z" fill="#1b7299"></path><path d="M0 292L7 292.5C14 293 28 294 41.8 290.3C55.7 286.7 69.3 278.3 83.2 273.8C97 269.3 111 268.7 125 271C139 273.3 153 278.7 167 279.5C181 280.3 195 276.7 208.8 277.2C222.7 277.7 236.3 282.3 250.2 284C264 285.7 278 284.3 292 283.2C306 282 320 281 334 283C348 285 362 290 375.8 292.2C389.7 294.3 403.3 293.7 417.2 293C431 292.3 445 291.7 459 288C473 284.3 487 277.7 501 278.2C515 278.7 529 286.3 542.8 286.5C556.7 286.7 570.3 279.3 584.2 279.7C598 280 612 288 626 289.8C640 291.7 654 287.3 668 287C682 286.7 696 290.3 709.8 289.7C723.7 289 737.3 284 751.2 283.2C765 282.3 779 285.7 793 283.5C807 281.3 821 273.7 835 273.2C849 272.7 863 279.3 876.8 282.5C890.7 285.7 904.3 285.3 918.2 284.3C932 283.3 946 281.7 953 280.8L960 280L960 301L953 301C946 301 932 301 918.2 301C904.3 301 890.7 301 876.8 301C863 301 849 301 835 301C821 301 807 301 793 301C779 301 765 301 751.2 301C737.3 301 723.7 301 709.8 301C696 301 682 301 668 301C654 301 640 301 626 301C612 301 598 301 584.2 301C570.3 301 556.7 301 542.8 301C529 301 515 301 501 301C487 301 473 301 459 301C445 301 431 301 417.2 301C403.3 301 389.7 301 375.8 301C362 301 348 301 334 301C320 301 306 301 292 301C278 301 264 301 250.2 301C236.3 301 222.7 301 208.8 301C195 301 181 301 167 301C153 301 139 301 125 301C111 301 97 301 83.2 301C69.3 301 55.7 301 41.8 301C28 301 14 301 7 301L0 301Z" fill="#2a7ea4"></path><path d="M0 285L7 284C14 283 28 281 41.8 279.7C55.7 278.3 69.3 277.7 83.2 279C97 280.3 111 283.7 125 286.8C139 290 153 293 167 294.3C181 295.7 195 295.3 208.8 294.3C222.7 293.3 236.3 291.7 250.2 289.7C264 287.7 278 285.3 292 286.2C306 287 320 291 334 290.7C348 290.3 362 285.7 375.8 283C389.7 280.3 403.3 279.7 417.2 281.5C431 283.3 445 287.7 459 291C473 294.3 487 296.7 501 294.5C515 292.3 529 285.7 542.8 283.2C556.7 280.7 570.3 282.3 584.2 283.3C598 284.3 612 284.7 626 285.3C640 286 654 287 668 287.7C682 288.3 696 288.7 709.8 290.2C723.7 291.7 737.3 294.3 751.2 292.7C765 291 779 285 793 283.8C807 282.7 821 286.3 835 289C849 291.7 863 293.3 876.8 294.7C890.7 296 904.3 297 918.2 297.3C932 297.7 946 297.3 953 297.2L960 297L960 301L953 301C946 301 932 301 918.2 301C904.3 301 890.7 301 876.8 301C863 301 849 301 835 301C821 301 807 301 793 301C779 301 765 301 751.2 301C737.3 301 723.7 301 709.8 301C696 301 682 301 668 301C654 301 640 301 626 301C612 301 598 301 584.2 301C570.3 301 556.7 301 542.8 301C529 301 515 301 501 301C487 301 473 301 459 301C445 301 431 301 417.2 301C403.3 301 389.7 301 375.8 301C362 301 348 301 334 301C320 301 306 301 292 301C278 301 264 301 250.2 301C236.3 301 222.7 301 208.8 301C195 301 181 301 167 301C153 301 139 301 125 301C111 301 97 301 83.2 301C69.3 301 55.7 301 41.8 301C28 301 14 301 7 301L0 301Z" fill="#378ab0"></path></svg>