<svg width="960" height="300" viewBox="0 0 960 300" fill="none" xmlns="http://www.w3.org/2000/svg">
<path d="M0 60L7 63.5C14 67 28 74 41.8 78.3C55.7 82.7 69.3 84.3 83.2 75.8C97 67.3 111 48.7 125 40.8C139 33 153 36 167 33.8C181 31.7 195 24.3 208.8 29.7C222.7 35 236.3 53 250.2 62.5C264 72 278 73 292 74C306 75 320 76 334 69.5C348 63 362 49 375.8 46C389.7 43 403.3 51 417.2 55.5C431 60 445 61 459 61.3C473 61.7 487 61.3 501 65.2C515 69 529 77 542.8 68.2C556.7 59.3 570.3 33.7 584.2 27.5C598 21.3 612 34.7 626 46.5C640 58.3 654 68.7 668 68.7C682 68.7 696 58.3 709.8 59C723.7 59.7 737.3 71.3 751.2 71.3C765 71.3 779 59.7 793 53.8C807 48 821 48 835 48.3C849 48.7 863 49.3 876.8 47.2C890.7 45 904.3 40 918.2 40.3C932 40.7 946 46.3 953 49.2L960 52V0H953C946 0 932 0 918.2 0C904.3 0 890.7 0 876.8 0C863 0 849 0 835 0C821 0 807 0 793 0C779 0 765 0 751.2 0C737.3 0 723.7 0 709.8 0C696 0 682 0 668 0C654 0 640 0 626 0C612 0 598 0 584.2 0C570.3 0 556.7 0 542.8 0C529 0 515 0 501 0C487 0 473 0 459 0C445 0 431 0 417.2 0C403.3 0 389.7 0 375.8 0C362 0 348 0 334 0C320 0 306 0 292 0C278 0 264 0 250.2 0C236.3 0 222.7 0 208.8 0C195 0 181 0 167 0C153 0 139 0 125 0C111 0 97 0 83.2 0C69.3 0 55.7 0 41.8 0C28 0 14 0 7 0H0V60Z" fill="#004B67"/>
<path d="M0 25L7 25.3C14 25.7 28 26.3 41.8 29.5C55.7 32.7 69.3 38.3 83.2 36C97 33.7 111 23.3 125 27.5C139 31.7 153 50.3 167 56.8C181 63.3 195 57.7 208.8 51.8C222.7 46 236.3 40 250.2 43.8C264 47.7 278 61.3 292 68.5C306 75.7 320 76.3 334 74.8C348 73.3 362 69.7 375.8 58.5C389.7 47.3 403.3 28.7 417.2 23C431 17.3 445 24.7 459 32.8C473 41 487 50 501 45.8C515 41.7 529 24.3 542.8 20.7C556.7 17 570.3 27 584.2 28.3C598 29.7 612 22.3 626 23.3C640 24.3 654 33.7 668 43.7C682 53.7 696 64.3 709.8 59.8C723.7 55.3 737.3 35.7 751.2 32.7C765 29.7 779 43.3 793 42.8C807 42.3 821 27.7 835 30.5C849 33.3 863 53.7 876.8 62.3C890.7 71 904.3 68 918.2 57.5C932 47 946 29 953 20L960 11V0H953C946 0 932 0 918.2 0C904.3 0 890.7 0 876.8 0C863 0 849 0 835 0C821 0 807 0 793 0C779 0 765 0 751.2 0C737.3 0 723.7 0 709.8 0C696 0 682 0 668 0C654 0 640 0 626 0C612 0 598 0 584.2 0C570.3 0 556.7 0 542.8 0C529 0 515 0 501 0C487 0 473 0 459 0C445 0 431 0 417.2 0C403.3 0 389.7 0 375.8 0C362 0 348 0 334 0C320 0 306 0 292 0C278 0 264 0 250.2 0C236.3 0 222.7 0 208.8 0C195 0 181 0 167 0C153 0 139 0 125 0C111 0 97 0 83.2 0C69.3 0 55.7 0 41.8 0C28 0 14 0 7 0H0V25Z" fill="#015473"/>
<path d="M0 5L7 14.5C14 24 28 43 41.8 49.3C55.7 55.7 69.3 49.3 83.2 48.5C97 47.7 111 52.3 125 48.3C139 44.3 153 31.7 167 29.7C181 27.7 195 36.3 208.8 40.5C222.7 44.7 236.3 44.3 250.2 42.8C264 41.3 278 38.7 292 41C306 43.3 320 50.7 334 51C348 51.3 362 44.7 375.8 42.5C389.7 40.3 403.3 42.7 417.2 39.3C431 36 445 27 459 26.2C473 25.3 487 32.7 501 33C515 33.3 529 26.7 542.8 24.7C556.7 22.7 570.3 25.3 584.2 26.7C598 28 612 28 626 28.3C640 28.7 654 29.3 668 27.5C682 25.7 696 21.3 709.8 26.7C723.7 32 737.3 47 751.2 52.3C765 57.7 779 53.3 793 47.7C807 42 821 35 835 36.2C849 37.3 863 46.7 876.8 51C890.7 55.3 904.3 54.7 918.2 48C932 41.3 946 28.7 953 22.3L960 16V0H953C946 0 932 0 918.2 0C904.3 0 890.7 0 876.8 0C863 0 849 0 835 0C821 0 807 0 793 0C779 0 765 0 751.2 0C737.3 0 723.7 0 709.8 0C696 0 682 0 668 0C654 0 640 0 626 0C612 0 598 0 584.2 0C570.3 0 556.7 0 542.8 0C529 0 515 0 501 0C487 0 473 0 459 0C445 0 431 0 417.2 0C403.3 0 389.7 0 375.8 0C362 0 348 0 334 0C320 0 306 0 292 0C278 0 264 0 250.2 0C236.3 0 222.7 0 208.8 0C195 0 181 0 167 0C153 0 139 0 125 0C111 0 97 0 83.2 0C69.3 0 55.7 0 41.8 0C28 0 14 0 7 0H0V5Z" fill="#025D80"/>
<path d="M0 35L7 32.5C14 30 28 25 41.8 26.3C55.7 27.7 69.3 35.3 83.2 40.5C97 45.7 111 48.3 125 44.5C139 40.7 153 30.3 167 23C181 15.7 195 11.3 208.8 12.8C222.7 14.3 236.3 21.7 250.2 28.7C264 35.7 278 42.3 292 40.2C306 38 320 27 334 24.8C348 22.7 362 29.3 375.8 34.7C389.7 40 403.3 44 417.2 39.2C431 34.3 445 20.7 459 16.8C473 13 487 19 501 21.3C515 23.7 529 22.3 542.8 21.7C556.7 21 570.3 21 584.2 25.5C598 30 612 39 626 43.5C640 48 654 48 668 48.7C682 49.3 696 50.7 709.8 44.5C723.7 38.3 737.3 24.7 751.2 24.7C765 24.7 779 38.3 793 40C807 41.7 821 31.3 835 28.8C849 26.3 863 31.7 876.8 31.2C890.7 30.7 904.3 24.3 918.2 26.8C932 29.3 946 40.7 953 46.3L960 52V0H953C946 0 932 0 918.2 0C904.3 0 890.7 0 876.8 0C863 0 849 0 835 0C821 0 807 0 793 0C779 0 765 0 751.2 0C737.3 0 723.7 0 709.8 0C696 0 682 0 668 0C654 0 640 0 626 0C612 0 598 0 584.2 0C570.3 0 556.7 0 542.8 0C529 0 515 0 501 0C487 0 473 0 459 0C445 0 431 0 417.2 0C403.3 0 389.7 0 375.8 0C362 0 348 0 334 0C320 0 306 0 292 0C278 0 264 0 250.2 0C236.3 0 222.7 0 208.8 0C195 0 181 0 167 0C153 0 139 0 125 0C111 0 97 0 83.2 0C69.3 0 55.7 0 41.8 0C28 0 14 0 7 0H0V35Z" fill="#05668D"/>
<path d="M0 19L7 20.3C14 21.7 28 24.3 41.8 27.7C55.7 31 69.3 35 83.2 35.3C97 35.7 111 32.3 125 29C139 25.7 153 22.3 167 18.8C181 15.3 195 11.7 208.8 15.8C222.7 20 236.3 32 250.2 33.2C264 34.3 278 24.7 292 19.8C306 15 320 15 334 17.5C348 20 362 25 375.8 25.5C389.7 26 403.3 22 417.2 21.7C431 21.3 445 24.7 459 23C473 21.3 487 14.7 501 10.8C515 7 529 6 542.8 8C556.7 10 570.3 15 584.2 18.3C598 21.7 612 23.3 626 21.3C640 19.3 654 13.7 668 15.7C682 17.7 696 27.3 709.8 28.7C723.7 30 737.3 23 751.2 17.2C765 11.3 779 6.7 793 4.5C807 2.3 821 2.7 835 6C849 9.3 863 15.7 876.8 16.3C890.7 17 904.3 12 918.2 13.8C932 15.7 946 24.3 953 28.7L960 33V0H953C946 0 932 0 918.2 0C904.3 0 890.7 0 876.8 0C863 0 849 0 835 0C821 0 807 0 793 0C779 0 765 0 751.2 0C737.3 0 723.7 0 709.8 0C696 0 682 0 668 0C654 0 640 0 626 0C612 0 598 0 584.2 0C570.3 0 556.7 0 542.8 0C529 0 515 0 501 0C487 0 473 0 459 0C445 0 431 0 417.2 0C403.3 0 389.7 0 375.8 0C362 0 348 0 334 0C320 0 306 0 292 0C278 0 264 0 250.2 0C236.3 0 222.7 0 208.8 0C195 0 181 0 167 0C153 0 139 0 125 0C111 0 97 0 83.2 0C69.3 0 55.7 0 41.8 0C28 0 14 0 7 0H0V19Z" fill="#1B7299"/>
<path d="M0 1L7 0.8C14 0.7 28 0.3 41.8 1.2C55.7 2 69.3 4 83.2 5.5C97 7 111 8 125 9C139 10 153 11 167 12.7C181 14.3 195 16.7 208.8 18C222.7 19.3 236.3 19.7 250.2 20.7C264 21.7 278 23.3 292 21.2C306 19 320 13 334 13.7C348 14.3 362 21.7 375.8 24.2C389.7 26.7 403.3 24.3 417.2 25C431 25.7 445 29.3 459 26C473 22.7 487 12.3 501 7C515 1.7 529 1.3 542.8 2C556.7 2.7 570.3 4.3 584.2 4.7C598 5 612 4 626 6.7C640 9.3 654 15.7 668 19.7C682 23.7 696 25.3 709.8 22.8C723.7 20.3 737.3 13.7 751.2 10.3C765 7 779 7 793 8.5C807 10 821 13 835 14.5C849 16 863 16 876.8 13.7C890.7 11.3 904.3 6.7 918.2 6.7C932 6.7 946 11.3 953 13.7L960 16V0H953C946 0 932 0 918.2 0C904.3 0 890.7 0 876.8 0C863 0 849 0 835 0C821 0 807 0 793 0C779 0 765 0 751.2 0C737.3 0 723.7 0 709.8 0C696 0 682 0 668 0C654 0 640 0 626 0C612 0 598 0 584.2 0C570.3 0 556.7 0 542.8 0C529 0 515 0 501 0C487 0 473 0 459 0C445 0 431 0 417.2 0C403.3 0 389.7 0 375.8 0C362 0 348 0 334 0C320 0 306 0 292 0C278 0 264 0 250.2 0C236.3 0 222.7 0 208.8 0C195 0 181 0 167 0C153 0 139 0 125 0C111 0 97 0 83.2 0C69.3 0 55.7 0 41.8 0C28 0 14 0 7 0H0V1Z" fill="#2A7EA4"/>
<path d="M0 17L7 15C14 13 28 9 41.8 9.7C55.7 10.3 69.3 15.7 83.2 15C97 14.3 111 7.7 125 4.3C139 1 153 1 167 4C181 7 195 13 208.8 15.8C222.7 18.7 236.3 18.3 250.2 17.2C264 16 278 14 292 14.2C306 14.3 320 16.7 334 15.2C348 13.7 362 8.3 375.8 5.2C389.7 2 403.3 1 417.2 3C431 5 445 10 459 13.5C473 17 487 19 501 18C515 17 529 13 542.8 11.8C556.7 10.7 570.3 12.3 584.2 12.2C598 12 612 10 626 10.2C640 10.3 654 12.7 668 14C682 15.3 696 15.7 709.8 13.5C723.7 11.3 737.3 6.7 751.2 6C765 5.3 779 8.7 793 9.5C807 10.3 821 8.7 835 7.7C849 6.7 863 6.3 876.8 8C890.7 9.7 904.3 13.3 918.2 14.7C932 16 946 15 953 14.5L960 14V0H953C946 0 932 0 918.2 0C904.3 0 890.7 0 876.8 0C863 0 849 0 835 0C821 0 807 0 793 0C779 0 765 0 751.2 0C737.3 0 723.7 0 709.8 0C696 0 682 0 668 0C654 0 640 0 626 0C612 0 598 0 584.2 0C570.3 0 556.7 0 542.8 0C529 0 515 0 501 0C487 0 473 0 459 0C445 0 431 0 417.2 0C403.3 0 389.7 0 375.8 0C362 0 348 0 334 0C320 0 306 0 292 0C278 0 264 0 250.2 0C236.3 0 222.7 0 208.8 0C195 0 181 0 167 0C153 0 139 0 125 0C111 0 97 0 83.2 0C69.3 0 55.7 0 41.8 0C28 0 14 0 7 0H0V17Z" fill="#378AB0"/>
<g clip-path="url(#clip0)">
<path d="M0 248L6.8 252.2C13.7 256.3 27.3 264.7 41.2 268.3C55 272 69 271 82.8 270.7C96.7 270.3 110.3 270.7 124 274.7C137.7 278.7 151.3 286.3 165.2 284.7C179 283 193 272 206.8 271.3C220.7 270.7 234.3 280.3 248 285.8C261.7 291.3 275.3 292.7 289 287.2C302.7 281.7 316.3 269.3 330.2 260.7C344 252 358 247 371.8 244C385.7 241 399.3 240 413 246.7C426.7 253.3 440.3 267.7 454.2 270.5C468 273.3 482 264.7 495.8 259C509.7 253.3 523.3 250.7 537 249.8C550.7 249 564.3 250 578.2 254.8C592 259.7 606 268.3 619.8 273.2C633.7 278 647.3 279 661 281.2C674.7 283.3 688.3 286.7 702 285C715.7 283.3 729.3 276.7 743.2 269.8C757 263 771 256 784.8 256.5C798.7 257 812.3 265 826 267.2C839.7 269.3 853.3 265.7 867.2 262.2C881 258.7 895 255.3 908.8 258.2C922.7 261 936.3 270 943.2 274.5L950 279V301H943.2C936.3 301 922.7 301 908.8 301C895 301 881 301 867.2 301C853.3 301 839.7 301 826 301C812.3 301 798.7 301 784.8 301C771 301 757 301 743.2 301C729.3 301 715.7 301 702 301C688.3 301 674.7 301 661 301C647.3 301 633.7 301 619.8 301C606 301 592 301 578.2 301C564.3 301 550.7 301 537 301C523.3 301 509.7 301 495.8 301C482 301 468 301 454.2 301C440.3 301 426.7 301 413 301C399.3 301 385.7 301 371.8 301C358 301 344 301 330.2 301C316.3 301 302.7 301 289 301C275.3 301 261.7 301 248 301C234.3 301 220.7 301 206.8 301C193 301 179 301 165.2 301C151.3 301 137.7 301 124 301C110.3 301 96.7 301 82.8 301C69 301 55 301 41.2 301C27.3 301 13.7 301 6.8 301H0V248Z" fill="#004B67"/>
<path d="M0 279L6.8 280.8C13.7 282.7 27.3 286.3 41.2 282.5C55 278.7 69 267.3 82.8 267.7C96.7 268 110.3 280 124 285.5C137.7 291 151.3 290 165.2 284.3C179 278.7 193 268.3 206.8 265.5C220.7 262.7 234.3 267.3 248 269.2C261.7 271 275.3 270 289 272C302.7 274 316.3 279 330.2 277.8C344 276.7 358 269.3 371.8 267.3C385.7 265.3 399.3 268.7 413 272.3C426.7 276 440.3 280 454.2 282.8C468 285.7 482 287.3 495.8 286.3C509.7 285.3 523.3 281.7 537 279.8C550.7 278 564.3 278 578.2 277.3C592 276.7 606 275.3 619.8 277.5C633.7 279.7 647.3 285.3 661 281C674.7 276.7 688.3 262.3 702 260C715.7 257.7 729.3 267.3 743.2 274.8C757 282.3 771 287.7 784.8 287.2C798.7 286.7 812.3 280.3 826 275C839.7 269.7 853.3 265.3 867.2 263.5C881 261.7 895 262.3 908.8 260.7C922.7 259 936.3 255 943.2 253L950 251V301H943.2C936.3 301 922.7 301 908.8 301C895 301 881 301 867.2 301C853.3 301 839.7 301 826 301C812.3 301 798.7 301 784.8 301C771 301 757 301 743.2 301C729.3 301 715.7 301 702 301C688.3 301 674.7 301 661 301C647.3 301 633.7 301 619.8 301C606 301 592 301 578.2 301C564.3 301 550.7 301 537 301C523.3 301 509.7 301 495.8 301C482 301 468 301 454.2 301C440.3 301 426.7 301 413 301C399.3 301 385.7 301 371.8 301C358 301 344 301 330.2 301C316.3 301 302.7 301 289 301C275.3 301 261.7 301 248 301C234.3 301 220.7 301 206.8 301C193 301 179 301 165.2 301C151.3 301 137.7 301 124 301C110.3 301 96.7 301 82.8 301C69 301 55 301 41.2 301C27.3 301 13.7 301 6.8 301H0V279Z" fill="#015473"/>
<path d="M0 289L6.8 285.8C13.7 282.7 27.3 276.3 41.2 274C55 271.7 69 273.3 82.8 274.5C96.7 275.7 110.3 276.3 124 274C137.7 271.7 151.3 266.3 165.2 263C179 259.7 193 258.3 206.8 259.2C220.7 260 234.3 263 248 263.8C261.7 264.7 275.3 263.3 289 268C302.7 272.7 316.3 283.3 330.2 282.7C344 282 358 270 371.8 267.7C385.7 265.3 399.3 272.7 413 275.5C426.7 278.3 440.3 276.7 454.2 276.8C468 277 482 279 495.8 279.3C509.7 279.7 523.3 278.3 537 280.8C550.7 283.3 564.3 289.7 578.2 291.8C592 294 606 292 619.8 287.5C633.7 283 647.3 276 661 270C674.7 264 688.3 259 702 260.8C715.7 262.7 729.3 271.3 743.2 276.3C757 281.3 771 282.7 784.8 278.5C798.7 274.3 812.3 264.7 826 264.5C839.7 264.3 853.3 273.7 867.2 276.8C881 280 895 277 908.8 278.7C922.7 280.3 936.3 286.7 943.2 289.8L950 293V301H943.2C936.3 301 922.7 301 908.8 301C895 301 881 301 867.2 301C853.3 301 839.7 301 826 301C812.3 301 798.7 301 784.8 301C771 301 757 301 743.2 301C729.3 301 715.7 301 702 301C688.3 301 674.7 301 661 301C647.3 301 633.7 301 619.8 301C606 301 592 301 578.2 301C564.3 301 550.7 301 537 301C523.3 301 509.7 301 495.8 301C482 301 468 301 454.2 301C440.3 301 426.7 301 413 301C399.3 301 385.7 301 371.8 301C358 301 344 301 330.2 301C316.3 301 302.7 301 289 301C275.3 301 261.7 301 248 301C234.3 301 220.7 301 206.8 301C193 301 179 301 165.2 301C151.3 301 137.7 301 124 301C110.3 301 96.7 301 82.8 301C69 301 55 301 41.2 301C27.3 301 13.7 301 6.8 301H0V289Z" fill="#025D80"/>
<path d="M0 294L6.8 289.2C13.7 284.3 27.3 274.7 41.2 271.2C55 267.7 69 270.3 82.8 275.2C96.7 280 110.3 287 124 285.3C137.7 283.7 151.3 273.3 165.2 269.8C179 266.3 193 269.7 206.8 272.5C220.7 275.3 234.3 277.7 248 276C261.7 274.3 275.3 268.7 289 268.5C302.7 268.3 316.3 273.7 330.2 274.8C344 276 358 273 371.8 274.7C385.7 276.3 399.3 282.7 413 283.5C426.7 284.3 440.3 279.7 454.2 279.8C468 280 482 285 495.8 283.7C509.7 282.3 523.3 274.7 537 271.3C550.7 268 564.3 269 578.2 269.8C592 270.7 606 271.3 619.8 274.2C633.7 277 647.3 282 661 285C674.7 288 688.3 289 702 286.7C715.7 284.3 729.3 278.7 743.2 279.2C757 279.7 771 286.3 784.8 285.3C798.7 284.3 812.3 275.7 826 275.5C839.7 275.3 853.3 283.7 867.2 283.5C881 283.3 895 274.7 908.8 270.3C922.7 266 936.3 266 943.2 266H950V301H943.2C936.3 301 922.7 301 908.8 301C895 301 881 301 867.2 301C853.3 301 839.7 301 826 301C812.3 301 798.7 301 784.8 301C771 301 757 301 743.2 301C729.3 301 715.7 301 702 301C688.3 301 674.7 301 661 301C647.3 301 633.7 301 619.8 301C606 301 592 301 578.2 301C564.3 301 550.7 301 537 301C523.3 301 509.7 301 495.8 301C482 301 468 301 454.2 301C440.3 301 426.7 301 413 301C399.3 301 385.7 301 371.8 301C358 301 344 301 330.2 301C316.3 301 302.7 301 289 301C275.3 301 261.7 301 248 301C234.3 301 220.7 301 206.8 301C193 301 179 301 165.2 301C151.3 301 137.7 301 124 301C110.3 301 96.7 301 82.8 301C69 301 55 301 41.2 301C27.3 301 13.7 301 6.8 301H0V294Z" fill="#05668D"/>
<path d="M0 296L6.8 292.8C13.7 289.7 27.3 283.3 41.2 279.3C55 275.3 69 273.7 82.8 273C96.7 272.3 110.3 272.7 124 274.5C137.7 276.3 151.3 279.7 165.2 282.3C179 285 193 287 206.8 288.2C220.7 289.3 234.3 289.7 248 289.2C261.7 288.7 275.3 287.3 289 287.3C302.7 287.3 316.3 288.7 330.2 287C344 285.3 358 280.7 371.8 278.5C385.7 276.3 399.3 276.7 413 276.7C426.7 276.7 440.3 276.3 454.2 279.2C468 282 482 288 495.8 287.2C509.7 286.3 523.3 278.7 537 276.5C550.7 274.3 564.3 277.7 578.2 280.5C592 283.3 606 285.7 619.8 284.8C633.7 284 647.3 280 661 278C674.7 276 688.3 276 702 278.3C715.7 280.7 729.3 285.3 743.2 288.2C757 291 771 292 784.8 291.3C798.7 290.7 812.3 288.3 826 288.5C839.7 288.7 853.3 291.3 867.2 288.8C881 286.3 895 278.7 908.8 275.8C922.7 273 936.3 275 943.2 276L950 277V301H943.2C936.3 301 922.7 301 908.8 301C895 301 881 301 867.2 301C853.3 301 839.7 301 826 301C812.3 301 798.7 301 784.8 301C771 301 757 301 743.2 301C729.3 301 715.7 301 702 301C688.3 301 674.7 301 661 301C647.3 301 633.7 301 619.8 301C606 301 592 301 578.2 301C564.3 301 550.7 301 537 301C523.3 301 509.7 301 495.8 301C482 301 468 301 454.2 301C440.3 301 426.7 301 413 301C399.3 301 385.7 301 371.8 301C358 301 344 301 330.2 301C316.3 301 302.7 301 289 301C275.3 301 261.7 301 248 301C234.3 301 220.7 301 206.8 301C193 301 179 301 165.2 301C151.3 301 137.7 301 124 301C110.3 301 96.7 301 82.8 301C69 301 55 301 41.2 301C27.3 301 13.7 301 6.8 301H0V296Z" fill="#1B7299"/>
<path d="M0 295L6.8 293.2C13.7 291.3 27.3 287.7 41.2 287C55 286.3 69 288.7 82.8 290.3C96.7 292 110.3 293 124 291C137.7 289 151.3 284 165.2 284.2C179 284.3 193 289.7 206.8 289.3C220.7 289 234.3 283 248 282.2C261.7 281.3 275.3 285.7 289 286.7C302.7 287.7 316.3 285.3 330.2 285.2C344 285 358 287 371.8 286.7C385.7 286.3 399.3 283.7 413 284.2C426.7 284.7 440.3 288.3 454.2 289.5C468 290.7 482 289.3 495.8 288.2C509.7 287 523.3 286 537 287.3C550.7 288.7 564.3 292.3 578.2 293.3C592 294.3 606 292.7 619.8 290.8C633.7 289 647.3 287 661 287.8C674.7 288.7 688.3 292.3 702 294.3C715.7 296.3 729.3 296.7 743.2 293.8C757 291 771 285 784.8 282C798.7 279 812.3 279 826 278.8C839.7 278.7 853.3 278.3 867.2 280.5C881 282.7 895 287.3 908.8 289.2C922.7 291 936.3 290 943.2 289.5L950 289V301H943.2C936.3 301 922.7 301 908.8 301C895 301 881 301 867.2 301C853.3 301 839.7 301 826 301C812.3 301 798.7 301 784.8 301C771 301 757 301 743.2 301C729.3 301 715.7 301 702 301C688.3 301 674.7 301 661 301C647.3 301 633.7 301 619.8 301C606 301 592 301 578.2 301C564.3 301 550.7 301 537 301C523.3 301 509.7 301 495.8 301C482 301 468 301 454.2 301C440.3 301 426.7 301 413 301C399.3 301 385.7 301 371.8 301C358 301 344 301 330.2 301C316.3 301 302.7 301 289 301C275.3 301 261.7 301 248 301C234.3 301 220.7 301 206.8 301C193 301 179 301 165.2 301C151.3 301 137.7 301 124 301C110.3 301 96.7 301 82.8 301C69 301 55 301 41.2 301C27.3 301 13.7 301 6.8 301H0V295Z" fill="#2A7EA4"/>
<path d="M0 293L6.8 292.2C13.7 291.3 27.3 289.7 41.2 290C55 290.3 69 292.7 82.8 293.8C96.7 295 110.3 295 124 295.2C137.7 295.3 151.3 295.7 165.2 294.7C179 293.7 193 291.3 206.8 290.5C220.7 289.7 234.3 290.3 248 289.7C261.7 289 275.3 287 289 287C302.7 287 316.3 289 330.2 291.2C344 293.3 358 295.7 371.8 295.3C385.7 295 399.3 292 413 289.8C426.7 287.7 440.3 286.3 454.2 287.7C468 289 482 293 495.8 294.8C509.7 296.7 523.3 296.3 537 295.2C550.7 294 564.3 292 578.2 292C592 292 606 294 619.8 293.7C633.7 293.3 647.3 290.7 661 291C674.7 291.3 688.3 294.7 702 295.2C715.7 295.7 729.3 293.3 743.2 291.2C757 289 771 287 784.8 287.3C798.7 287.7 812.3 290.3 826 292.7C839.7 295 853.3 297 867.2 296.5C881 296 895 293 908.8 290.5C922.7 288 936.3 286 943.2 285L950 284V301H943.2C936.3 301 922.7 301 908.8 301C895 301 881 301 867.2 301C853.3 301 839.7 301 826 301C812.3 301 798.7 301 784.8 301C771 301 757 301 743.2 301C729.3 301 715.7 301 702 301C688.3 301 674.7 301 661 301C647.3 301 633.7 301 619.8 301C606 301 592 301 578.2 301C564.3 301 550.7 301 537 301C523.3 301 509.7 301 495.8 301C482 301 468 301 454.2 301C440.3 301 426.7 301 413 301C399.3 301 385.7 301 371.8 301C358 301 344 301 330.2 301C316.3 301 302.7 301 289 301C275.3 301 261.7 301 248 301C234.3 301 220.7 301 206.8 301C193 301 179 301 165.2 301C151.3 301 137.7 301 124 301C110.3 301 96.7 301 82.8 301C69 301 55 301 41.2 301C27.3 301 13.7 301 6.8 301H0V293Z" fill="#378AB0"/>
</g>
<defs>
<clipPath id="clip0">
<rect width="950" height="300" fill="white"/>
</clipPath>
</defs>
</svg>
