<svg id="visual" viewBox="0 0 950 300" width="950" height="300" xmlns="http://www.w3.org/2000/svg" xmlns:xlink="http://www.w3.org/1999/xlink" version="1.1"><path d="M0 248L6.8 252.2C13.7 256.3 27.3 264.7 41.2 268.3C55 272 69 271 82.8 270.7C96.7 270.3 110.3 270.7 124 274.7C137.7 278.7 151.3 286.3 165.2 284.7C179 283 193 272 206.8 271.3C220.7 270.7 234.3 280.3 248 285.8C261.7 291.3 275.3 292.7 289 287.2C302.7 281.7 316.3 269.3 330.2 260.7C344 252 358 247 371.8 244C385.7 241 399.3 240 413 246.7C426.7 253.3 440.3 267.7 454.2 270.5C468 273.3 482 264.7 495.8 259C509.7 253.3 523.3 250.7 537 249.8C550.7 249 564.3 250 578.2 254.8C592 259.7 606 268.3 619.8 273.2C633.7 278 647.3 279 661 281.2C674.7 283.3 688.3 286.7 702 285C715.7 283.3 729.3 276.7 743.2 269.8C757 263 771 256 784.8 256.5C798.7 257 812.3 265 826 267.2C839.7 269.3 853.3 265.7 867.2 262.2C881 258.7 895 255.3 908.8 258.2C922.7 261 936.3 270 943.2 274.5L950 279L950 301L943.2 301C936.3 301 922.7 301 908.8 301C895 301 881 301 867.2 301C853.3 301 839.7 301 826 301C812.3 301 798.7 301 784.8 301C771 301 757 301 743.2 301C729.3 301 715.7 301 702 301C688.3 301 674.7 301 661 301C647.3 301 633.7 301 619.8 301C606 301 592 301 578.2 301C564.3 301 550.7 301 537 301C523.3 301 509.7 301 495.8 301C482 301 468 301 454.2 301C440.3 301 426.7 301 413 301C399.3 301 385.7 301 371.8 301C358 301 344 301 330.2 301C316.3 301 302.7 301 289 301C275.3 301 261.7 301 248 301C234.3 301 220.7 301 206.8 301C193 301 179 301 165.2 301C151.3 301 137.7 301 124 301C110.3 301 96.7 301 82.8 301C69 301 55 301 41.2 301C27.3 301 13.7 301 6.8 301L0 301Z" fill="#008f71"></path><path d="M0 279L6.8 280.8C13.7 282.7 27.3 286.3 41.2 282.5C55 278.7 69 267.3 82.8 267.7C96.7 268 110.3 280 124 285.5C137.7 291 151.3 290 165.2 284.3C179 278.7 193 268.3 206.8 265.5C220.7 262.7 234.3 267.3 248 269.2C261.7 271 275.3 270 289 272C302.7 274 316.3 279 330.2 277.8C344 276.7 358 269.3 371.8 267.3C385.7 265.3 399.3 268.7 413 272.3C426.7 276 440.3 280 454.2 282.8C468 285.7 482 287.3 495.8 286.3C509.7 285.3 523.3 281.7 537 279.8C550.7 278 564.3 278 578.2 277.3C592 276.7 606 275.3 619.8 277.5C633.7 279.7 647.3 285.3 661 281C674.7 276.7 688.3 262.3 702 260C715.7 257.7 729.3 267.3 743.2 274.8C757 282.3 771 287.7 784.8 287.2C798.7 286.7 812.3 280.3 826 275C839.7 269.7 853.3 265.3 867.2 263.5C881 261.7 895 262.3 908.8 260.7C922.7 259 936.3 255 943.2 253L950 251L950 301L943.2 301C936.3 301 922.7 301 908.8 301C895 301 881 301 867.2 301C853.3 301 839.7 301 826 301C812.3 301 798.7 301 784.8 301C771 301 757 301 743.2 301C729.3 301 715.7 301 702 301C688.3 301 674.7 301 661 301C647.3 301 633.7 301 619.8 301C606 301 592 301 578.2 301C564.3 301 550.7 301 537 301C523.3 301 509.7 301 495.8 301C482 301 468 301 454.2 301C440.3 301 426.7 301 413 301C399.3 301 385.7 301 371.8 301C358 301 344 301 330.2 301C316.3 301 302.7 301 289 301C275.3 301 261.7 301 248 301C234.3 301 220.7 301 206.8 301C193 301 179 301 165.2 301C151.3 301 137.7 301 124 301C110.3 301 96.7 301 82.8 301C69 301 55 301 41.2 301C27.3 301 13.7 301 6.8 301L0 301Z" fill="#00a07e"></path><path d="M0 289L6.8 285.8C13.7 282.7 27.3 276.3 41.2 274C55 271.7 69 273.3 82.8 274.5C96.7 275.7 110.3 276.3 124 274C137.7 271.7 151.3 266.3 165.2 263C179 259.7 193 258.3 206.8 259.2C220.7 260 234.3 263 248 263.8C261.7 264.7 275.3 263.3 289 268C302.7 272.7 316.3 283.3 330.2 282.7C344 282 358 270 371.8 267.7C385.7 265.3 399.3 272.7 413 275.5C426.7 278.3 440.3 276.7 454.2 276.8C468 277 482 279 495.8 279.3C509.7 279.7 523.3 278.3 537 280.8C550.7 283.3 564.3 289.7 578.2 291.8C592 294 606 292 619.8 287.5C633.7 283 647.3 276 661 270C674.7 264 688.3 259 702 260.8C715.7 262.7 729.3 271.3 743.2 276.3C757 281.3 771 282.7 784.8 278.5C798.7 274.3 812.3 264.7 826 264.5C839.7 264.3 853.3 273.7 867.2 276.8C881 280 895 277 908.8 278.7C922.7 280.3 936.3 286.7 943.2 289.8L950 293L950 301L943.2 301C936.3 301 922.7 301 908.8 301C895 301 881 301 867.2 301C853.3 301 839.7 301 826 301C812.3 301 798.7 301 784.8 301C771 301 757 301 743.2 301C729.3 301 715.7 301 702 301C688.3 301 674.7 301 661 301C647.3 301 633.7 301 619.8 301C606 301 592 301 578.2 301C564.3 301 550.7 301 537 301C523.3 301 509.7 301 495.8 301C482 301 468 301 454.2 301C440.3 301 426.7 301 413 301C399.3 301 385.7 301 371.8 301C358 301 344 301 330.2 301C316.3 301 302.7 301 289 301C275.3 301 261.7 301 248 301C234.3 301 220.7 301 206.8 301C193 301 179 301 165.2 301C151.3 301 137.7 301 124 301C110.3 301 96.7 301 82.8 301C69 301 55 301 41.2 301C27.3 301 13.7 301 6.8 301L0 301Z" fill="#01b18c"></path><path d="M0 294L6.8 289.2C13.7 284.3 27.3 274.7 41.2 271.2C55 267.7 69 270.3 82.8 275.2C96.7 280 110.3 287 124 285.3C137.7 283.7 151.3 273.3 165.2 269.8C179 266.3 193 269.7 206.8 272.5C220.7 275.3 234.3 277.7 248 276C261.7 274.3 275.3 268.7 289 268.5C302.7 268.3 316.3 273.7 330.2 274.8C344 276 358 273 371.8 274.7C385.7 276.3 399.3 282.7 413 283.5C426.7 284.3 440.3 279.7 454.2 279.8C468 280 482 285 495.8 283.7C509.7 282.3 523.3 274.7 537 271.3C550.7 268 564.3 269 578.2 269.8C592 270.7 606 271.3 619.8 274.2C633.7 277 647.3 282 661 285C674.7 288 688.3 289 702 286.7C715.7 284.3 729.3 278.7 743.2 279.2C757 279.7 771 286.3 784.8 285.3C798.7 284.3 812.3 275.7 826 275.5C839.7 275.3 853.3 283.7 867.2 283.5C881 283.3 895 274.7 908.8 270.3C922.7 266 936.3 266 943.2 266L950 266L950 301L943.2 301C936.3 301 922.7 301 908.8 301C895 301 881 301 867.2 301C853.3 301 839.7 301 826 301C812.3 301 798.7 301 784.8 301C771 301 757 301 743.2 301C729.3 301 715.7 301 702 301C688.3 301 674.7 301 661 301C647.3 301 633.7 301 619.8 301C606 301 592 301 578.2 301C564.3 301 550.7 301 537 301C523.3 301 509.7 301 495.8 301C482 301 468 301 454.2 301C440.3 301 426.7 301 413 301C399.3 301 385.7 301 371.8 301C358 301 344 301 330.2 301C316.3 301 302.7 301 289 301C275.3 301 261.7 301 248 301C234.3 301 220.7 301 206.8 301C193 301 179 301 165.2 301C151.3 301 137.7 301 124 301C110.3 301 96.7 301 82.8 301C69 301 55 301 41.2 301C27.3 301 13.7 301 6.8 301L0 301Z" fill="#02c39a"></path><path d="M0 296L6.8 292.8C13.7 289.7 27.3 283.3 41.2 279.3C55 275.3 69 273.7 82.8 273C96.7 272.3 110.3 272.7 124 274.5C137.7 276.3 151.3 279.7 165.2 282.3C179 285 193 287 206.8 288.2C220.7 289.3 234.3 289.7 248 289.2C261.7 288.7 275.3 287.3 289 287.3C302.7 287.3 316.3 288.7 330.2 287C344 285.3 358 280.7 371.8 278.5C385.7 276.3 399.3 276.7 413 276.7C426.7 276.7 440.3 276.3 454.2 279.2C468 282 482 288 495.8 287.2C509.7 286.3 523.3 278.7 537 276.5C550.7 274.3 564.3 277.7 578.2 280.5C592 283.3 606 285.7 619.8 284.8C633.7 284 647.3 280 661 278C674.7 276 688.3 276 702 278.3C715.7 280.7 729.3 285.3 743.2 288.2C757 291 771 292 784.8 291.3C798.7 290.7 812.3 288.3 826 288.5C839.7 288.7 853.3 291.3 867.2 288.8C881 286.3 895 278.7 908.8 275.8C922.7 273 936.3 275 943.2 276L950 277L950 301L943.2 301C936.3 301 922.7 301 908.8 301C895 301 881 301 867.2 301C853.3 301 839.7 301 826 301C812.3 301 798.7 301 784.8 301C771 301 757 301 743.2 301C729.3 301 715.7 301 702 301C688.3 301 674.7 301 661 301C647.3 301 633.7 301 619.8 301C606 301 592 301 578.2 301C564.3 301 550.7 301 537 301C523.3 301 509.7 301 495.8 301C482 301 468 301 454.2 301C440.3 301 426.7 301 413 301C399.3 301 385.7 301 371.8 301C358 301 344 301 330.2 301C316.3 301 302.7 301 289 301C275.3 301 261.7 301 248 301C234.3 301 220.7 301 206.8 301C193 301 179 301 165.2 301C151.3 301 137.7 301 124 301C110.3 301 96.7 301 82.8 301C69 301 55 301 41.2 301C27.3 301 13.7 301 6.8 301L0 301Z" fill="#2ccaa4"></path><path d="M0 295L6.8 293.2C13.7 291.3 27.3 287.7 41.2 287C55 286.3 69 288.7 82.8 290.3C96.7 292 110.3 293 124 291C137.7 289 151.3 284 165.2 284.2C179 284.3 193 289.7 206.8 289.3C220.7 289 234.3 283 248 282.2C261.7 281.3 275.3 285.7 289 286.7C302.7 287.7 316.3 285.3 330.2 285.2C344 285 358 287 371.8 286.7C385.7 286.3 399.3 283.7 413 284.2C426.7 284.7 440.3 288.3 454.2 289.5C468 290.7 482 289.3 495.8 288.2C509.7 287 523.3 286 537 287.3C550.7 288.7 564.3 292.3 578.2 293.3C592 294.3 606 292.7 619.8 290.8C633.7 289 647.3 287 661 287.8C674.7 288.7 688.3 292.3 702 294.3C715.7 296.3 729.3 296.7 743.2 293.8C757 291 771 285 784.8 282C798.7 279 812.3 279 826 278.8C839.7 278.7 853.3 278.3 867.2 280.5C881 282.7 895 287.3 908.8 289.2C922.7 291 936.3 290 943.2 289.5L950 289L950 301L943.2 301C936.3 301 922.7 301 908.8 301C895 301 881 301 867.2 301C853.3 301 839.7 301 826 301C812.3 301 798.7 301 784.8 301C771 301 757 301 743.2 301C729.3 301 715.7 301 702 301C688.3 301 674.7 301 661 301C647.3 301 633.7 301 619.8 301C606 301 592 301 578.2 301C564.3 301 550.7 301 537 301C523.3 301 509.7 301 495.8 301C482 301 468 301 454.2 301C440.3 301 426.7 301 413 301C399.3 301 385.7 301 371.8 301C358 301 344 301 330.2 301C316.3 301 302.7 301 289 301C275.3 301 261.7 301 248 301C234.3 301 220.7 301 206.8 301C193 301 179 301 165.2 301C151.3 301 137.7 301 124 301C110.3 301 96.7 301 82.8 301C69 301 55 301 41.2 301C27.3 301 13.7 301 6.8 301L0 301Z" fill="#42d0ad"></path><path d="M0 293L6.8 292.2C13.7 291.3 27.3 289.7 41.2 290C55 290.3 69 292.7 82.8 293.8C96.7 295 110.3 295 124 295.2C137.7 295.3 151.3 295.7 165.2 294.7C179 293.7 193 291.3 206.8 290.5C220.7 289.7 234.3 290.3 248 289.7C261.7 289 275.3 287 289 287C302.7 287 316.3 289 330.2 291.2C344 293.3 358 295.7 371.8 295.3C385.7 295 399.3 292 413 289.8C426.7 287.7 440.3 286.3 454.2 287.7C468 289 482 293 495.8 294.8C509.7 296.7 523.3 296.3 537 295.2C550.7 294 564.3 292 578.2 292C592 292 606 294 619.8 293.7C633.7 293.3 647.3 290.7 661 291C674.7 291.3 688.3 294.7 702 295.2C715.7 295.7 729.3 293.3 743.2 291.2C757 289 771 287 784.8 287.3C798.7 287.7 812.3 290.3 826 292.7C839.7 295 853.3 297 867.2 296.5C881 296 895 293 908.8 290.5C922.7 288 936.3 286 943.2 285L950 284L950 301L943.2 301C936.3 301 922.7 301 908.8 301C895 301 881 301 867.2 301C853.3 301 839.7 301 826 301C812.3 301 798.7 301 784.8 301C771 301 757 301 743.2 301C729.3 301 715.7 301 702 301C688.3 301 674.7 301 661 301C647.3 301 633.7 301 619.8 301C606 301 592 301 578.2 301C564.3 301 550.7 301 537 301C523.3 301 509.7 301 495.8 301C482 301 468 301 454.2 301C440.3 301 426.7 301 413 301C399.3 301 385.7 301 371.8 301C358 301 344 301 330.2 301C316.3 301 302.7 301 289 301C275.3 301 261.7 301 248 301C234.3 301 220.7 301 206.8 301C193 301 179 301 165.2 301C151.3 301 137.7 301 124 301C110.3 301 96.7 301 82.8 301C69 301 55 301 41.2 301C27.3 301 13.7 301 6.8 301L0 301Z" fill="#54d7b7"></path></svg>