<svg id="visual" viewBox="0 0 500 300" width="500" height="300" xmlns="http://www.w3.org/2000/svg" xmlns:xlink="http://www.w3.org/1999/xlink" version="1.1"><path d="M0 216L8.3 219.5C16.7 223 33.3 230 50 231.5C66.7 233 83.3 229 100 227.2C116.7 225.3 133.3 225.7 150 226.3C166.7 227 183.3 228 200 230C216.7 232 233.3 235 250 230.2C266.7 225.3 283.3 212.7 300 210.7C316.7 208.7 333.3 217.3 350 219.5C366.7 221.7 383.3 217.3 400 212.2C416.7 207 433.3 201 450 203.7C466.7 206.3 483.3 217.7 491.7 223.3L500 229L500 301L491.7 301C483.3 301 466.7 301 450 301C433.3 301 416.7 301 400 301C383.3 301 366.7 301 350 301C333.3 301 316.7 301 300 301C283.3 301 266.7 301 250 301C233.3 301 216.7 301 200 301C183.3 301 166.7 301 150 301C133.3 301 116.7 301 100 301C83.3 301 66.7 301 50 301C33.3 301 16.7 301 8.3 301L0 301Z" fill="#008f71"></path><path d="M0 211L8.3 214.5C16.7 218 33.3 225 50 225.5C66.7 226 83.3 220 100 220.8C116.7 221.7 133.3 229.3 150 232.7C166.7 236 183.3 235 200 231C216.7 227 233.3 220 250 217.8C266.7 215.7 283.3 218.3 300 222.2C316.7 226 333.3 231 350 234.5C366.7 238 383.3 240 400 237C416.7 234 433.3 226 450 223.3C466.7 220.7 483.3 223.3 491.7 224.7L500 226L500 301L491.7 301C483.3 301 466.7 301 450 301C433.3 301 416.7 301 400 301C383.3 301 366.7 301 350 301C333.3 301 316.7 301 300 301C283.3 301 266.7 301 250 301C233.3 301 216.7 301 200 301C183.3 301 166.7 301 150 301C133.3 301 116.7 301 100 301C83.3 301 66.7 301 50 301C33.3 301 16.7 301 8.3 301L0 301Z" fill="#00a381"></path><path d="M0 242L8.3 242.3C16.7 242.7 33.3 243.3 50 245C66.7 246.7 83.3 249.3 100 247.7C116.7 246 133.3 240 150 235.8C166.7 231.7 183.3 229.3 200 231.3C216.7 233.3 233.3 239.7 250 239.7C266.7 239.7 283.3 233.3 300 232.2C316.7 231 333.3 235 350 240.5C366.7 246 383.3 253 400 255.3C416.7 257.7 433.3 255.3 450 254.5C466.7 253.7 483.3 254.3 491.7 254.7L500 255L500 301L491.7 301C483.3 301 466.7 301 450 301C433.3 301 416.7 301 400 301C383.3 301 366.7 301 350 301C333.3 301 316.7 301 300 301C283.3 301 266.7 301 250 301C233.3 301 216.7 301 200 301C183.3 301 166.7 301 150 301C133.3 301 116.7 301 100 301C83.3 301 66.7 301 50 301C33.3 301 16.7 301 8.3 301L0 301Z" fill="#01b892"></path><path d="M0 248L8.3 250.8C16.7 253.7 33.3 259.3 50 263.2C66.7 267 83.3 269 100 268C116.7 267 133.3 263 150 258.7C166.7 254.3 183.3 249.7 200 250.7C216.7 251.7 233.3 258.3 250 261.3C266.7 264.3 283.3 263.7 300 262.2C316.7 260.7 333.3 258.3 350 259C366.7 259.7 383.3 263.3 400 261.8C416.7 260.3 433.3 253.7 450 250.5C466.7 247.3 483.3 247.7 491.7 247.8L500 248L500 301L491.7 301C483.3 301 466.7 301 450 301C433.3 301 416.7 301 400 301C383.3 301 366.7 301 350 301C333.3 301 316.7 301 300 301C283.3 301 266.7 301 250 301C233.3 301 216.7 301 200 301C183.3 301 166.7 301 150 301C133.3 301 116.7 301 100 301C83.3 301 66.7 301 50 301C33.3 301 16.7 301 8.3 301L0 301Z" fill="#21c7a0"></path><path d="M0 259L8.3 258.7C16.7 258.3 33.3 257.7 50 257.8C66.7 258 83.3 259 100 260.8C116.7 262.7 133.3 265.3 150 267.3C166.7 269.3 183.3 270.7 200 269C216.7 267.3 233.3 262.7 250 260.8C266.7 259 283.3 260 300 260.5C316.7 261 333.3 261 350 261.7C366.7 262.3 383.3 263.7 400 265.8C416.7 268 433.3 271 450 272.5C466.7 274 483.3 274 491.7 274L500 274L500 301L491.7 301C483.3 301 466.7 301 450 301C433.3 301 416.7 301 400 301C383.3 301 366.7 301 350 301C333.3 301 316.7 301 300 301C283.3 301 266.7 301 250 301C233.3 301 216.7 301 200 301C183.3 301 166.7 301 150 301C133.3 301 116.7 301 100 301C83.3 301 66.7 301 50 301C33.3 301 16.7 301 8.3 301L0 301Z" fill="#3ecfac"></path><path d="M0 279L8.3 280.3C16.7 281.7 33.3 284.3 50 285.2C66.7 286 83.3 285 100 283.2C116.7 281.3 133.3 278.7 150 278.2C166.7 277.7 183.3 279.3 200 280C216.7 280.7 233.3 280.3 250 281.3C266.7 282.3 283.3 284.7 300 285.2C316.7 285.7 333.3 284.3 350 284.3C366.7 284.3 383.3 285.7 400 284.2C416.7 282.7 433.3 278.3 450 277.5C466.7 276.7 483.3 279.3 491.7 280.7L500 282L500 301L491.7 301C483.3 301 466.7 301 450 301C433.3 301 416.7 301 400 301C383.3 301 366.7 301 350 301C333.3 301 316.7 301 300 301C283.3 301 266.7 301 250 301C233.3 301 216.7 301 200 301C183.3 301 166.7 301 150 301C133.3 301 116.7 301 100 301C83.3 301 66.7 301 50 301C33.3 301 16.7 301 8.3 301L0 301Z" fill="#54d7b7"></path></svg>