<svg id="visual" viewBox="0 0 900 600" width="900" height="600" xmlns="http://www.w3.org/2000/svg" xmlns:xlink="http://www.w3.org/1999/xlink" version="1.1"><path d="M0 575L6.5 573.2C13 571.3 26 567.7 39 565.2C52 562.7 65 561.3 78 561.2C91 561 104 562 117.2 559.7C130.3 557.3 143.7 551.7 156.8 552.3C170 553 183 560 196 559.2C209 558.3 222 549.7 235 547.2C248 544.7 261 548.3 274 554C287 559.7 300 567.3 313 569.8C326 572.3 339 569.7 352 569.7C365 569.7 378 572.3 391 569.5C404 566.7 417 558.3 430.2 557.2C443.3 556 456.7 562 469.8 565.7C483 569.3 496 570.7 509 572.7C522 574.7 535 577.3 548 578.5C561 579.7 574 579.3 587 580C600 580.7 613 582.3 626 582.5C639 582.7 652 581.3 665 575.5C678 569.7 691 559.3 704 554C717 548.7 730 548.3 743.2 553.7C756.3 559 769.7 570 782.8 576C796 582 809 583 822 583.3C835 583.7 848 583.3 861 579.8C874 576.3 887 569.7 893.5 566.3L900 563L900 601L893.5 601C887 601 874 601 861 601C848 601 835 601 822 601C809 601 796 601 782.8 601C769.7 601 756.3 601 743.2 601C730 601 717 601 704 601C691 601 678 601 665 601C652 601 639 601 626 601C613 601 600 601 587 601C574 601 561 601 548 601C535 601 522 601 509 601C496 601 483 601 469.8 601C456.7 601 443.3 601 430.2 601C417 601 404 601 391 601C378 601 365 601 352 601C339 601 326 601 313 601C300 601 287 601 274 601C261 601 248 601 235 601C222 601 209 601 196 601C183 601 170 601 156.8 601C143.7 601 130.3 601 117.2 601C104 601 91 601 78 601C65 601 52 601 39 601C26 601 13 601 6.5 601L0 601Z" fill="#004b67"></path><path d="M0 569L6.5 566.3C13 563.7 26 558.3 39 559.5C52 560.7 65 568.3 78 571.3C91 574.3 104 572.7 117.2 568.8C130.3 565 143.7 559 156.8 557.2C170 555.3 183 557.7 196 559.2C209 560.7 222 561.3 235 564.8C248 568.3 261 574.7 274 576.3C287 578 300 575 313 575.8C326 576.7 339 581.3 352 580C365 578.7 378 571.3 391 571.7C404 572 417 580 430.2 579.5C443.3 579 456.7 570 469.8 567.7C483 565.3 496 569.7 509 572C522 574.3 535 574.7 548 573.7C561 572.7 574 570.3 587 566.5C600 562.7 613 557.3 626 557.2C639 557 652 562 665 567.5C678 573 691 579 704 579.5C717 580 730 575 743.2 574.5C756.3 574 769.7 578 782.8 575.5C796 573 809 564 822 564.7C835 565.3 848 575.7 861 576.7C874 577.7 887 569.3 893.5 565.2L900 561L900 601L893.5 601C887 601 874 601 861 601C848 601 835 601 822 601C809 601 796 601 782.8 601C769.7 601 756.3 601 743.2 601C730 601 717 601 704 601C691 601 678 601 665 601C652 601 639 601 626 601C613 601 600 601 587 601C574 601 561 601 548 601C535 601 522 601 509 601C496 601 483 601 469.8 601C456.7 601 443.3 601 430.2 601C417 601 404 601 391 601C378 601 365 601 352 601C339 601 326 601 313 601C300 601 287 601 274 601C261 601 248 601 235 601C222 601 209 601 196 601C183 601 170 601 156.8 601C143.7 601 130.3 601 117.2 601C104 601 91 601 78 601C65 601 52 601 39 601C26 601 13 601 6.5 601L0 601Z" fill="#015473"></path><path d="M0 586L6.5 585.3C13 584.7 26 583.3 39 582.8C52 582.3 65 582.7 78 578.7C91 574.7 104 566.3 117.2 563.2C130.3 560 143.7 562 156.8 562C170 562 183 560 196 562.7C209 565.3 222 572.7 235 573.7C248 574.7 261 569.3 274 570C287 570.7 300 577.3 313 577.7C326 578 339 572 352 568.7C365 565.3 378 564.7 391 564.3C404 564 417 564 430.2 568.3C443.3 572.7 456.7 581.3 469.8 583.2C483 585 496 580 509 576.2C522 572.3 535 569.7 548 569.3C561 569 574 571 587 571C600 571 613 569 626 568.8C639 568.7 652 570.3 665 573.8C678 577.3 691 582.7 704 583.2C717 583.7 730 579.3 743.2 576.5C756.3 573.7 769.7 572.3 782.8 570.3C796 568.3 809 565.7 822 568C835 570.3 848 577.7 861 578.7C874 579.7 887 574.3 893.5 571.7L900 569L900 601L893.5 601C887 601 874 601 861 601C848 601 835 601 822 601C809 601 796 601 782.8 601C769.7 601 756.3 601 743.2 601C730 601 717 601 704 601C691 601 678 601 665 601C652 601 639 601 626 601C613 601 600 601 587 601C574 601 561 601 548 601C535 601 522 601 509 601C496 601 483 601 469.8 601C456.7 601 443.3 601 430.2 601C417 601 404 601 391 601C378 601 365 601 352 601C339 601 326 601 313 601C300 601 287 601 274 601C261 601 248 601 235 601C222 601 209 601 196 601C183 601 170 601 156.8 601C143.7 601 130.3 601 117.2 601C104 601 91 601 78 601C65 601 52 601 39 601C26 601 13 601 6.5 601L0 601Z" fill="#025d80"></path><path d="M0 580L6.5 581.2C13 582.3 26 584.7 39 585.5C52 586.3 65 585.7 78 585.7C91 585.7 104 586.3 117.2 584.3C130.3 582.3 143.7 577.7 156.8 578C170 578.3 183 583.7 196 585.7C209 587.7 222 586.3 235 586.8C248 587.3 261 589.7 274 586.7C287 583.7 300 575.3 313 575.3C326 575.3 339 583.7 352 587C365 590.3 378 588.7 391 586.5C404 584.3 417 581.7 430.2 578.2C443.3 574.7 456.7 570.3 469.8 569.7C483 569 496 572 509 574.8C522 577.7 535 580.3 548 580.8C561 581.3 574 579.7 587 577.5C600 575.3 613 572.7 626 572.5C639 572.3 652 574.7 665 574C678 573.3 691 569.7 704 567.7C717 565.7 730 565.3 743.2 569.3C756.3 573.3 769.7 581.7 782.8 586C796 590.3 809 590.7 822 587.2C835 583.7 848 576.3 861 575.5C874 574.7 887 580.3 893.5 583.2L900 586L900 601L893.5 601C887 601 874 601 861 601C848 601 835 601 822 601C809 601 796 601 782.8 601C769.7 601 756.3 601 743.2 601C730 601 717 601 704 601C691 601 678 601 665 601C652 601 639 601 626 601C613 601 600 601 587 601C574 601 561 601 548 601C535 601 522 601 509 601C496 601 483 601 469.8 601C456.7 601 443.3 601 430.2 601C417 601 404 601 391 601C378 601 365 601 352 601C339 601 326 601 313 601C300 601 287 601 274 601C261 601 248 601 235 601C222 601 209 601 196 601C183 601 170 601 156.8 601C143.7 601 130.3 601 117.2 601C104 601 91 601 78 601C65 601 52 601 39 601C26 601 13 601 6.5 601L0 601Z" fill="#05668d"></path><path d="M0 593L6.5 590.3C13 587.7 26 582.3 39 581C52 579.7 65 582.3 78 584.2C91 586 104 587 117.2 585.8C130.3 584.7 143.7 581.3 156.8 580.8C170 580.3 183 582.7 196 582.7C209 582.7 222 580.3 235 579.3C248 578.3 261 578.7 274 581.2C287 583.7 300 588.3 313 587.3C326 586.3 339 579.7 352 579.5C365 579.3 378 585.7 391 589C404 592.3 417 592.7 430.2 591C443.3 589.3 456.7 585.7 469.8 582.3C483 579 496 576 509 578C522 580 535 587 548 588.2C561 589.3 574 584.7 587 582.7C600 580.7 613 581.3 626 579.8C639 578.3 652 574.7 665 576.7C678 578.7 691 586.3 704 588.2C717 590 730 586 743.2 583.8C756.3 581.7 769.7 581.3 782.8 579.8C796 578.3 809 575.7 822 574.3C835 573 848 573 861 575.7C874 578.3 887 583.7 893.5 586.3L900 589L900 601L893.5 601C887 601 874 601 861 601C848 601 835 601 822 601C809 601 796 601 782.8 601C769.7 601 756.3 601 743.2 601C730 601 717 601 704 601C691 601 678 601 665 601C652 601 639 601 626 601C613 601 600 601 587 601C574 601 561 601 548 601C535 601 522 601 509 601C496 601 483 601 469.8 601C456.7 601 443.3 601 430.2 601C417 601 404 601 391 601C378 601 365 601 352 601C339 601 326 601 313 601C300 601 287 601 274 601C261 601 248 601 235 601C222 601 209 601 196 601C183 601 170 601 156.8 601C143.7 601 130.3 601 117.2 601C104 601 91 601 78 601C65 601 52 601 39 601C26 601 13 601 6.5 601L0 601Z" fill="#1b7299"></path><path d="M0 582L6.5 584.3C13 586.7 26 591.3 39 591.8C52 592.3 65 588.7 78 586.5C91 584.3 104 583.7 117.2 582.3C130.3 581 143.7 579 156.8 578.3C170 577.7 183 578.3 196 580.7C209 583 222 587 235 589.3C248 591.7 261 592.3 274 592.2C287 592 300 591 313 588.8C326 586.7 339 583.3 352 584.2C365 585 378 590 391 589.8C404 589.7 417 584.3 430.2 581.5C443.3 578.7 456.7 578.3 469.8 578.7C483 579 496 580 509 580C522 580 535 579 548 580.8C561 582.7 574 587.3 587 589.8C600 592.3 613 592.7 626 591.3C639 590 652 587 665 585.8C678 584.7 691 585.3 704 585.5C717 585.7 730 585.3 743.2 585C756.3 584.7 769.7 584.3 782.8 583.7C796 583 809 582 822 581.3C835 580.7 848 580.3 861 581.2C874 582 887 584 893.5 585L900 586L900 601L893.5 601C887 601 874 601 861 601C848 601 835 601 822 601C809 601 796 601 782.8 601C769.7 601 756.3 601 743.2 601C730 601 717 601 704 601C691 601 678 601 665 601C652 601 639 601 626 601C613 601 600 601 587 601C574 601 561 601 548 601C535 601 522 601 509 601C496 601 483 601 469.8 601C456.7 601 443.3 601 430.2 601C417 601 404 601 391 601C378 601 365 601 352 601C339 601 326 601 313 601C300 601 287 601 274 601C261 601 248 601 235 601C222 601 209 601 196 601C183 601 170 601 156.8 601C143.7 601 130.3 601 117.2 601C104 601 91 601 78 601C65 601 52 601 39 601C26 601 13 601 6.5 601L0 601Z" fill="#2a7ea4"></path><path d="M0 594L6.5 594.2C13 594.3 26 594.7 39 594.5C52 594.3 65 593.7 78 592.8C91 592 104 591 117.2 590C130.3 589 143.7 588 156.8 589.3C170 590.7 183 594.3 196 594.8C209 595.3 222 592.7 235 592.8C248 593 261 596 274 596.8C287 597.7 300 596.3 313 595.2C326 594 339 593 352 593.5C365 594 378 596 391 595.7C404 595.3 417 592.7 430.2 590.3C443.3 588 456.7 586 469.8 586C483 586 496 588 509 588.3C522 588.7 535 587.3 548 586.7C561 586 574 586 587 586C600 586 613 586 626 588.2C639 590.3 652 594.7 665 595.3C678 596 691 593 704 592C717 591 730 592 743.2 591.5C756.3 591 769.7 589 782.8 588.7C796 588.3 809 589.7 822 590.8C835 592 848 593 861 594C874 595 887 596 893.5 596.5L900 597L900 601L893.5 601C887 601 874 601 861 601C848 601 835 601 822 601C809 601 796 601 782.8 601C769.7 601 756.3 601 743.2 601C730 601 717 601 704 601C691 601 678 601 665 601C652 601 639 601 626 601C613 601 600 601 587 601C574 601 561 601 548 601C535 601 522 601 509 601C496 601 483 601 469.8 601C456.7 601 443.3 601 430.2 601C417 601 404 601 391 601C378 601 365 601 352 601C339 601 326 601 313 601C300 601 287 601 274 601C261 601 248 601 235 601C222 601 209 601 196 601C183 601 170 601 156.8 601C143.7 601 130.3 601 117.2 601C104 601 91 601 78 601C65 601 52 601 39 601C26 601 13 601 6.5 601L0 601Z" fill="#378ab0"></path></svg>